<svg xmlns="http://www.w3.org/2000/svg" fill="none" viewBox="5.14 0 392.5 122"><g filter="url(#a)"><path d="M201.391 47v2.5m0-2.5h-12.75m12.75 0h12.75m-12.75 2.5V52m0-2.5h-14.394m14.394 0h14.395M201.391 52v2m0-2h-16.038m16.038 0h16.039m-16.039 2v2m0-2h-17.354m17.354 0h17.355m-17.355 2v2.5m0-2.5h-18.669m18.669 0h18.67m-18.67 2.5v2.75m0-2.75h-20.313m20.313 0h20.314m-20.314 2.75V64m0-2.75l-22.103-.028m22.103.028l22.104-.028M201.391 64v2.5m0-2.5H177.46m23.931 0h23.932m-23.932 2.5v4m0-4h-25.575m25.575 0h25.576m-25.576 4V75m0-4.5h-28.206m28.206 0h28.207M201.391 75v5m0-5h-31.166m31.166 0h31.167m-31.167 5v6.5m0-6.5h-34.454m34.454 0h34.455m-34.455 6.5v9.753m0-9.753h-38.729m38.729 0h38.73m-38.73 9.753V107.5m0-11.247c-14.9-.037-30.004-.08-45.059-.129m45.059.129c14.901-.037 30.005-.08 45.06-.129m-45.06 11.376v14m0-14H148.85m52.541 0h52.542m-105.083 0H92.685m56.165 0l-9.209 14m9.209-14l7.482-11.376M92.685 107.5H40.954m51.731 0l-19.544 14m19.544-14l16.113-11.543M40.954 107.5H5.64m35.313 0l23.29-11.724M40.955 107.5l-27.813 14m143.191-25.376c-16.003-.05-31.949-.107-47.534-.166m47.534.166l6.33-9.624m-53.864 9.457c-15.295-.058-30.242-.119-44.553-.181m44.553.181l13.203-9.457m-57.757 9.276c-15.973-.07-31.154-.14-45.142-.209m45.142.209L82.672 86.5m-63.57 9.067c-4.622-.022-9.114-.045-13.46-.067m13.46.067L5.642 100.5m13.46-4.933L43.847 86.5m118.815 0h-40.661m40.661 0l4.275-6.5m-44.936 6.5h-39.33m39.33 0l9.073-6.5m-48.402 6.5H43.847m38.825 0L95.584 80m-51.737 6.5H5.641L27.692 80m16.155 6.5L61.585 80M5.641 80h22.051m0 0h33.893m-33.893 0l16.962-5m16.931 5h34m-34 0l13.645-5m20.354 5h35.49m-35.49 0l9.933-5m25.557 5h35.863m-35.863 0l6.98-5m28.883 5l3.288-5M5.641 75h8.234m0 0h30.78m-30.78 0L5.64 77m8.234-2L32.4 70.5M44.654 75H75.23m-30.576 0l15.266-4.5M75.23 75h30.287M75.23 75l12.28-4.5m18.007 4.5h32.537m-32.537 0l8.94-4.5m23.597 4.5h32.171m-32.171 0l6.282-4.5m25.889 4.5l2.96-4.5M32.4 70.5H5.64l18.724-4m8.035 4h27.52m-27.52 0l16.467-4m11.053 4h27.59m-27.59 0l13.57-4m14.02 4h26.947m-26.946 0l10.916-4m16.03 4h29.879m-29.879 0l7.946-4m21.933 4h28.849m-28.849 0l5.584-4m23.265 4l2.631-4m-170.175 0h18.724m0 0h24.502m-24.502 0L36.067 64m12.8 2.5H73.49m-24.623 0L59.157 64m14.332 2.5h24.937m-24.937 0l8.48-2.5m16.457 2.5h23.976m-23.977 0l6.823-2.5m17.154 2.5h27.517m-27.517 0l4.967-2.5m22.55 2.5h25.896m-25.896 0l3.49-2.5m22.406 2.5l1.644-2.5m0 0h-24.05m24.05 0l1.828-2.778M153.41 64h-26.04m26.04 0l3.917-2.806M127.37 64h-22.121m22.121 0l5.636-2.837M105.249 64H81.971m23.278 0l7.812-2.863M81.971 64H59.158m22.813 0l9.804-2.89M59.158 64H36.067m23.091 0l12.006-2.916M36.067 64h-22.48m22.48 0l13.778-2.944M13.587 64H5.641m7.946 0l-7.946 1.5m7.946-1.5l15.732-2.97M5.641 61l2.927.004m0 0l20.751.026m-20.751-.026L5.64 61.5m2.927-.496L23.33 58.5m5.988 2.53l20.526.026M29.32 61.03l13.404-2.53m7.122 2.556l21.319.028m-21.319-.028L61.812 58.5m9.352 2.584l20.61.026m-20.61-.026L81.8 58.5m9.975 2.61l21.286.027m-21.286-.027l8.854-2.61m12.432 2.637l19.945.026m-19.945-.026l7.197-2.637m12.748 2.663l24.321.03m-24.321-.03l5.29-2.663m19.031 2.694l21.961.028m-21.961-.028l3.761-2.694m18.2 2.722l1.79-2.722m0 0h-19.99m19.99 0l1.644-2.5m-21.634 2.5h-22.792m22.792 0l3.49-2.5m-26.282 2.5h-18.038m18.038 0l4.966-2.5m-23.004 2.5h-19.629m19.629 0l6.823-2.5m-26.452 2.5h-18.83m18.83 0l8.481-2.5M81.8 58.5H61.812m19.988 0L92.09 56m-30.28 2.5H42.724m19.089 0L73.514 56m-30.791 2.5H23.33m19.392 0L55.966 56M23.33 58.5H5.641L22.163 56m1.168 2.5L38.072 56m-15.909 0H5.641l13.778-2m2.744 2h15.91m-15.91 0l13.218-2m2.691 2h17.894m-17.894 0l11.794-2m6.1 2h17.548m-17.548 0l10.594-2m6.954 2h18.578m-18.578 0l9.362-2m9.215 2h17.019m-17.019 0l8.234-2m8.785 2h17.971m-17.971 0l6.785-2m11.186 2h16.181m-16.181 0l5.458-2m10.723 2h21.316m-21.316 0l3.973-2m17.343 2h18.144m-18.144 0l2.792-2m15.352 2l1.315-2m0 0H167.37m16.667 0l1.316-2m-17.983 2h-20.135m20.135 0l2.792-2m-22.927 2h-14.696m14.696 0l3.974-2m-18.67 2h-16.644m16.644 0l5.458-2m-22.102 2h-15.57m15.57 0l6.784-2m-22.354 2h-17.45m17.45 0l8.233-2m-25.683 2H66.56m16.316 0l9.361-2M66.56 54H49.866m16.694 0l10.595-2m-27.29 2H35.382m14.485 0l11.793-2M35.38 54H19.419m15.962 0l13.217-2m-29.179 2H5.641l14.286-2m-.508 2l13.778-2M5.641 52h14.286m0 0h13.27m-13.27 0l17.857-2.5M33.197 52h15.401m-15.401 0l17.222-2.5M48.598 52h13.06m-13.06 0l16.522-2.5M61.659 52h15.496m-15.496 0L76.4 49.5m.755 2.5h15.082m-15.082 0l13.243-2.5m1.84 2.5h16.32m-16.32 0l11.701-2.5m4.619 2.5h14.121m-14.121 0l10.292-2.5m3.829 2.5h15.318m-15.318 0l8.481-2.5m6.837 2.5h13.212m-13.212 0l6.822-2.5m6.39 2.5h18.953m-18.953 0l4.966-2.5m13.987 2.5h15.191m-15.191 0l3.49-2.5m11.701 2.5l1.644-2.5m-181.356 0h16.445m0 0h15.698m-15.698 0l-16.445 2m16.445-2L42.642 47m-4.858 2.5H50.42m-12.635 0L55.642 47m-5.223 2.5h14.7m-14.7 0L67.641 47m-2.521 2.5H76.4m-11.28 0L81.64 47m-5.24 2.5h13.997m-13.998 0L91.141 47m-.743 2.5h13.541m-13.54 0L103.64 47m.298 2.5h14.911m-14.911 0l11.702-2.5m3.209 2.5h12.31m-12.31 0l10.291-2.5m2.019 2.5h13.659m-13.659 0l8.481-2.5m5.178 2.5h11.356m-11.356 0l6.822-2.5m4.534 2.5h17.477m-17.477 0l4.966-2.5m12.511 2.5h13.345m-13.345 0l3.489-2.5m9.856 2.5l1.644-2.5m0 0h-11.5m0 0h-16m0 0h-9.5m0 0h-12m0 0h-10.5m0 0h-13.5m0 0h-12m0 0h-12.5m0 0h-9.5m0 0h-14m0 0h-12m0 0h-13m0 0h-13.5m0 0h-23.5m23.5 0l-23.5 2m248.292 58.5h56.165m-56.165 0l9.208 14m-9.208-14l-7.482-11.376m63.647 11.376h51.731m-51.731 0l19.543 14m-19.543-14l-16.113-11.543m67.844 11.543h35.312m-35.312 0l-23.29-11.724m23.29 11.724l27.812 14m-143.19-25.376c16.003-.05 31.949-.107 47.534-.166m-47.534.166l-6.33-9.624m53.864 9.457c15.295-.058 30.242-.119 44.554-.181m-44.554.181L280.782 86.5m57.757 9.276c15.973-.07 31.154-.14 45.142-.209m-45.142.209L320.111 86.5m63.57 9.067c4.622-.022 9.113-.045 13.46-.067m-13.46.067l13.46 4.933m-13.46-4.933L358.936 86.5m-118.815 0h40.661m-40.661 0l-4.275-6.5m44.936 6.5h39.329m-39.329 0l-9.073-6.5m48.402 6.5h38.825m-38.825 0L307.199 80m51.737 6.5h38.205l-22.05-6.5m-16.155 6.5L341.198 80m55.943 0h-22.05m0 0h-33.893m33.893 0l-16.962-5m-16.931 5h-33.999m33.999 0l-13.645-5m-20.354 5h-35.49m35.49 0l-9.933-5m-25.557 5h-35.863m35.863 0l-6.98-5m-28.883 5l-3.288-5m164.583 0h-8.233m0 0h-30.779m30.779 0l8.233 2m-8.233-2l-18.525-4.5M358.129 75h-30.576m30.576 0l-15.266-4.5m-15.31 4.5h-30.287m30.287 0l-12.281-4.5M297.266 75h-32.537m32.537 0l-8.94-4.5M264.729 75h-32.171m32.171 0l-6.282-4.5M232.558 75l-2.96-4.5m140.785 0h26.758l-18.723-4m-8.035 4h-27.52m27.52 0l-16.467-4m-11.053 4h-27.591m27.591 0l-13.57-4m-14.021 4h-26.946m26.946 0l-10.916-4m-16.03 4h-29.879m29.879 0l-7.946-4m-21.933 4h-28.849m28.849 0l-5.584-4m-23.265 4l-2.631-4m170.174 0h-18.723m0 0h-24.502m24.502 0L366.716 64m-12.8 2.5h-24.623m24.623 0L343.625 64m-14.332 2.5h-24.937m24.937 0l-8.481-2.5m-16.456 2.5H280.38m23.976 0l-6.822-2.5m-17.154 2.5h-27.517m27.517 0l-4.967-2.5m-22.55 2.5h-25.896m25.896 0l-3.49-2.5m-22.406 2.5l-1.644-2.5m0 0h24.05m-24.05 0l-1.828-2.778M249.373 64h26.04m-26.04 0l-3.917-2.806M275.413 64h22.121m-22.121 0l-5.636-2.837M297.534 64h23.278m-23.278 0l-7.813-2.863M320.812 64h22.813m-22.813 0l-9.804-2.89M343.625 64h23.091m-23.091 0l-12.006-2.916M366.716 64h22.48m-22.48 0l-13.778-2.944M389.196 64h7.945m-7.945 0l7.945 1.5m-7.945-1.5l-15.732-2.97m23.677-.03l-2.926.004m0 0l-20.751.026m20.751-.026l2.926.496m-2.926-.496L379.452 58.5m-5.988 2.53l-20.526.026m20.526-.026L360.06 58.5m-7.122 2.556l-21.319.028m21.319-.028L340.971 58.5m-9.352 2.584l-20.611.026m20.611-.026L320.983 58.5m-9.975 2.61l-21.287.027m21.287-.027l-8.854-2.61m-12.433 2.637l-19.944.026m19.944-.026l-7.196-2.637m-12.748 2.663l-24.321.03m24.321-.03l-5.29-2.663m-19.031 2.694l-21.961.028m21.961-.028l-3.761-2.694m-18.2 2.722l-1.79-2.722m0 0h19.99m-19.99 0l-1.644-2.5m21.634 2.5h22.792m-22.792 0l-3.49-2.5m26.282 2.5h18.038m-18.038 0l-4.966-2.5m23.004 2.5h19.629m-19.629 0l-6.823-2.5m26.452 2.5h18.829m-18.829 0l-8.481-2.5m27.31 2.5h19.988m-19.988 0L310.691 56m30.28 2.5h19.089m-19.089 0L329.269 56m30.791 2.5h19.392m-19.392 0L346.817 56m32.635 2.5h17.689L380.62 56m-1.168 2.5L364.71 56m15.91 0h16.521l-13.777-2m-2.744 2h-15.91m15.91 0l-13.218-2m-2.692 2h-17.893m17.893 0l-11.793-2m-6.1 2h-17.548m17.548 0l-10.594-2m-6.954 2h-18.578m18.578 0l-9.362-2m-9.216 2h-17.018m17.018 0l-8.233-2m-8.785 2h-17.971m17.971 0l-6.785-2m-11.186 2h-16.181m16.181 0l-5.458-2m-10.723 2h-21.316m21.316 0l-3.973-2m-17.343 2h-18.144m18.144 0l-2.792-2m-15.352 2l-1.315-2m0 0h16.667m-16.667 0l-1.316-2m17.983 2h20.135m-20.135 0l-2.792-2m22.927 2h14.696m-14.696 0l-3.974-2m18.67 2h16.644m-16.644 0l-5.458-2m22.102 2h15.57m-15.57 0l-6.784-2m22.354 2h17.449m-17.449 0l-8.233-2m25.682 2h16.316m-16.316 0l-9.361-2m25.677 2h16.694m-16.694 0l-10.595-2m27.289 2h14.485m-14.485 0l-11.793-2m26.278 2h15.962m-15.962 0l-13.217-2m29.179 2h13.777l-14.285-2m.508 2l-13.778-2m27.555 0h-14.285m0 0h-13.27m13.27 0l-17.857-2.5m4.587 2.5h-15.401m15.401 0l-17.222-2.5m1.821 2.5h-13.061m13.061 0l-16.522-2.5m3.461 2.5h-15.496m15.496 0l-14.741-2.5m-.755 2.5h-15.082m15.082 0l-13.243-2.5m-1.839 2.5h-16.321m16.321 0l-11.702-2.5m-4.619 2.5h-14.121m14.121 0l-10.292-2.5m-3.829 2.5h-15.318m15.318 0l-8.482-2.5m-6.836 2.5h-13.212m13.212 0l-6.822-2.5m-6.39 2.5h-18.953m18.953 0l-4.966-2.5M232.621 52H217.43m15.191 0l-3.49-2.5M217.43 52l-1.644-2.5m181.355 0h-16.444m0 0h-15.698m15.698 0l16.444 2m-16.444-2L360.141 47m4.858 2.5h-12.635m12.635 0L347.141 47m5.223 2.5h-14.701m14.701 0L335.141 47m2.522 2.5h-11.28m11.28 0L321.141 47m5.242 2.5h-13.998m13.998 0L311.641 47m.744 2.5h-13.541m13.541 0L299.141 47m-.297 2.5h-14.911m14.911 0L287.141 47m-3.208 2.5h-12.311m12.311 0L273.641 47m-2.019 2.5h-13.658m13.658 0l-8.481-2.5m-5.177 2.5h-11.356m11.356 0l-6.823-2.5m-4.533 2.5h-17.477m17.477 0l-4.967-2.5m-12.51 2.5h-13.345m13.345 0l-3.49-2.5m-9.855 2.5l-1.645-2.5m0 0h11.5m0 0h16m0 0h9.5m0 0h12m0 0h10.5m0 0h13.5m0 0h12m0 0h12.5m0 0h9.5m0 0h14m0 0h12m0 0h13m0 0h13.5m0 0h23.5m-23.5 0l23.5 2" stroke="#6172C5" stroke-linecap="square"/></g><path d="M133.045 7c1.774.245 4.396.974 6.493 2.374 1.97 1.314 3.501 3.238 3.395 5.92.533-.602 1.244-.948 2.031-1.097.957-.18 2.034-.073 3.065.22a9.3 9.3 0 012.828 1.345c.796.57 1.413 1.247 1.661 1.94l.123.345-.326-.14c-.592-.253-1.434-.428-2.344-.51l-.08-.008-.04-.072-.421-.747-.172.78-.126-.003c-.972-.026-1.938.054-2.686.249-.375.098-.687.222-.917.37-.152.098-.26.203-.33.31a8.374 8.374 0 012.384.756l.088.044v1.49l.995-.878.097.074c1.762 1.328 2.773 3.303 3.308 5.29.534 1.987.598 4 .456 5.424l-.053.533-.237-.475c-.702-1.406-1.982-3.517-3.536-5.274-1.476-1.668-3.167-2.981-4.825-3.121.771 1.337 1.205 3.326 1.078 5.368-.137 2.184-.92 4.453-2.654 6.066l-.301.28.046-.42c.1-.92.02-2.027-.168-3.19l-.018-.11.572-.353-.674-.21-.018-.095a32.526 32.526 0 00-.833-3.254l-.036-.12 1.192-.796-1.518-.199-.032-.093c-.356-1.032-.701-1.882-.947-2.4-2.985 5.047-4.815 11.243-5.888 16.97-1.09 5.816-1.397 11.136-1.346 14.252l.002.165h-3.955l.023-.183c.131-1.06-.042-2.377-.414-3.831-.372-1.452-.94-3.03-1.589-4.608-1.272-3.096-2.847-6.177-3.856-8.324-.195.102-.425.323-.675.715-.3.47-.615 1.162-.923 2.126l-.028.087-.087.02-.768.167.656.498-.028.108c-.413 1.597-.598 3.337-.236 4.603l.166.582-.42-.418c-.758-.754-1.657-2.361-2.067-4.155-.379-1.653-.348-3.499.626-4.992a6.205 6.205 0 00-2.185 1.12c-.932.74-1.92 1.933-2.915 3.94l-.204.412-.084-.456a8.442 8.442 0 01-.143-1.57l.001-.11.53-.213-.438-.777.011-.06a6.27 6.27 0 011.139-2.658l.046-.063h1.031l-.255-.862.076-.07a7.85 7.85 0 012.802-1.638c-.917-.58-2.927-1.287-5.371-.432l-.158-.267c.847-.89 2.201-2.07 3.823-2.391l.183-.036v.681l.664-.73.067.002c.879.015 1.807.312 2.752 1.03-.036-1.133.255-2.054.742-2.793l.036-.054 1.057-.22-.508-.448.133-.124c1.291-1.208 3.143-1.681 4.333-1.76l.421-.028-.305.306a18.352 18.352 0 00-2.135 2.605c-.342.517-.637 1.042-.831 1.534-.142.36-.225.692-.24.986.38-.306.887-.555 1.469-.733a7.657 7.657 0 012.464-.302c1.783.062 3.751.7 5.211 2.232l.307.322-.431-.047c-1.752-.188-3.141-.152-4.219 0l-.111.015-.358-.777-.432.93-.072.017c-.967.238-1.564.57-1.876.84.95.187 2.261.656 3.396 1.52l.064.048v.84l.358-.346.105-.102.104.102c.898.873 1.594 2.055 1.745 3.612l.037.379-.286-.235c-1.999-1.648-4.708-2.385-6.079-2.594 1.152 1.978 3.511 6.637 5.208 12.004 1.424-8.014 3.044-14.108 4.5-18.488 1.373-4.128 2.603-6.739 3.392-7.997a32.29 32.29 0 00-3.267.624l-.056.014-.05-.027-1.222-.66.329 1.172-.152.044c-2.146.617-4.055 1.526-5.348 2.484l-.243.18v-.313c0-.505.246-1.298.69-2.174a12.141 12.141 0 011.956-2.773c1.601-1.7 3.892-3.102 6.721-2.876-1.047-.807-2.862-1.641-4.913-2.162-2.338-.593-4.945-.769-7.027-.054l-.15-.275c1.139-1.06 2.556-2.03 4.134-2.65l.163-.064.188.816.686-1.1.057-.016c1.342-.364 2.775-.456 4.234-.128l.122.027v1.245l.966-.95.089.034c1.242.475 2.486 1.277 3.691 2.487-.105-.964-.414-1.883-.849-2.74l-.058-.113.839-.771h-1.289l-.046-.071c-1.359-2.094-3.361-3.679-4.575-4.4l.096-.301zm.717.447c1.212.838 2.808 2.237 3.971 4h1.945l-1.272 1.171c.485.984.812 2.056.862 3.19l.019.423-.282-.301c-1.241-1.321-2.518-2.18-3.787-2.683l-1.346 1.325v-1.73c-1.343-.279-2.664-.194-3.912.137l-1.01 1.62-.274-1.186c-1.235.508-2.367 1.235-3.335 2.048 2.021-.496 4.387-.289 6.506.249 2.361.6 4.453 1.619 5.445 2.576l.364.352-.49-.073c-2.943-.435-5.326.968-6.98 2.725a11.797 11.797 0 00-1.904 2.697c-.339.67-.545 1.263-.621 1.693 1.282-.887 3.052-1.71 5.017-2.29l-.442-1.58 1.811.977a31.663 31.663 0 013.586-.66l.348-.04-.207.297c-.744 1.072-2.056 3.732-3.546 8.211-1.488 4.475-3.15 10.757-4.598 19.066l-.298.02c-1.784-5.874-4.435-11.002-5.534-12.826l-.17-.281.316.034c1.203.13 4.058.803 6.257 2.468a5.343 5.343 0 00-1.495-2.926l-.769.746v-1.414c-1.196-.889-2.587-1.332-3.491-1.465l-.258-.039.156-.218c.265-.37.959-.838 2.175-1.15l.647-1.389.538 1.166c.992-.13 2.223-.164 3.729-.03-1.352-1.232-3.083-1.762-4.677-1.817a7.366 7.366 0 00-2.368.289c-.692.21-1.243.519-1.584.877l-.214.224-.047-.313c-.069-.447.041-.957.245-1.475.205-.521.513-1.068.863-1.596a18.507 18.507 0 011.865-2.332c-1.085.144-2.519.588-3.585 1.513l.723.641-1.563.324c-.473.742-.739 1.687-.632 2.884l.034.381-.285-.24c-.964-.814-1.899-1.144-2.768-1.175l-1.101 1.21V30.66c-1.197.29-2.243 1.069-3.024 1.806 2.544-.657 4.564.257 5.311.859l.253.204-.31.08c-.821.216-1.945.729-2.923 1.597l.32 1.078h-1.297a5.92 5.92 0 00-1.024 2.398l.564 1.002-.673.27c.002.298.023.607.064.93.939-1.789 1.88-2.905 2.787-3.626.977-.778 1.906-1.088 2.726-1.293l.453-.113-.299.375c-1.151 1.441-1.234 3.342-.836 5.086.329 1.439.981 2.742 1.595 3.55-.188-1.229-.002-2.71.338-4.064l-1.049-.796 1.365-.299c.305-.934.62-1.628.931-2.114.317-.497.642-.798.964-.895l.124-.037.057.122c.998 2.135 2.622 5.3 3.925 8.47.652 1.587 1.226 3.18 1.603 4.653.357 1.391.541 2.688.442 3.774h3.294c-.038-3.16.279-8.418 1.354-14.156 1.094-5.837 2.975-12.182 6.073-17.318l.139-.23.126.238c.25.473.647 1.42 1.057 2.6l2.181.286-1.714 1.145c.296.972.575 2.027.785 3.073l1.177.368-1 .617c.152.97.229 1.912.186 2.748 1.458-1.52 2.137-3.566 2.262-5.562.133-2.126-.363-4.17-1.188-5.429l-.166-.253h.294c1.888 0 3.772 1.463 5.341 3.237 1.408 1.591 2.591 3.465 3.334 4.863a15.525 15.525 0 00-.487-4.763c-.513-1.905-1.465-3.77-3.094-5.041l-1.317 1.161v-1.978a8.194 8.194 0 00-2.411-.716l-.175-.026.047-.178c.074-.279.277-.5.543-.671.267-.173.613-.307 1.004-.41.751-.194 1.696-.277 2.643-.26l.29-1.311.773 1.371c.731.072 1.429.203 1.995.392-.276-.494-.761-.993-1.389-1.444a9.004 9.004 0 00-2.734-1.3c-1.002-.284-2.03-.383-2.93-.213-.898.17-1.661.606-2.153 1.39l-.281-.11c.329-2.793-1.166-4.784-3.212-6.149-1.769-1.18-3.93-1.877-5.611-2.2z" fill="#6172C5"/><path d="M133.762 7.447c1.212.838 2.808 2.237 3.971 4h1.945l-1.272 1.171c.485.984.812 2.056.862 3.19l.019.423-.282-.301c-1.241-1.321-2.518-2.18-3.787-2.683l-1.346 1.325v-1.73c-1.343-.279-2.664-.194-3.912.137l-1.01 1.62-.274-1.186c-1.235.508-2.367 1.235-3.335 2.048 2.021-.496 4.387-.289 6.506.249 2.361.6 4.453 1.619 5.445 2.576l.364.352-.49-.073c-2.943-.435-5.326.968-6.98 2.725a11.797 11.797 0 00-1.904 2.697c-.339.67-.545 1.263-.621 1.693 1.282-.887 3.052-1.71 5.017-2.29l-.442-1.58 1.811.977a31.663 31.663 0 013.586-.66l.348-.04-.207.297c-.744 1.072-2.056 3.732-3.546 8.211-1.488 4.475-3.15 10.757-4.598 19.066l-.298.02c-1.784-5.874-4.435-11.002-5.534-12.826l-.17-.281.316.034c1.203.13 4.058.803 6.257 2.468a5.343 5.343 0 00-1.495-2.926l-.769.746v-1.414c-1.196-.889-2.587-1.332-3.491-1.465l-.258-.039.156-.218c.265-.37.959-.838 2.175-1.15l.647-1.389.538 1.166c.992-.13 2.223-.164 3.729-.03-1.352-1.232-3.083-1.762-4.677-1.817a7.366 7.366 0 00-2.368.289c-.692.21-1.243.519-1.584.877l-.214.224-.047-.313c-.069-.447.041-.957.245-1.475.205-.521.513-1.068.863-1.596a18.507 18.507 0 011.865-2.332c-1.085.144-2.519.588-3.585 1.513l.723.641-1.563.324c-.473.742-.739 1.687-.632 2.884l.034.381-.285-.24c-.964-.814-1.899-1.144-2.768-1.175l-1.101 1.21V30.66c-1.197.29-2.243 1.069-3.024 1.806 2.544-.657 4.564.257 5.311.859l.253.204-.31.08c-.821.216-1.945.729-2.923 1.597l.32 1.078h-1.297a5.92 5.92 0 00-1.024 2.398l.564 1.002-.673.27c.002.298.023.607.064.93.939-1.789 1.88-2.905 2.787-3.626.977-.778 1.906-1.088 2.726-1.293l.453-.113-.299.375c-1.151 1.441-1.234 3.342-.836 5.086.329 1.439.981 2.742 1.595 3.55-.188-1.229-.002-2.71.338-4.064l-1.049-.796 1.365-.299c.305-.934.62-1.628.931-2.114.317-.497.642-.798.964-.895l.124-.037.057.122c.998 2.135 2.622 5.3 3.925 8.47.652 1.587 1.226 3.18 1.603 4.653.357 1.391.541 2.688.442 3.774h3.294c-.038-3.16.279-8.418 1.354-14.156 1.094-5.837 2.975-12.182 6.073-17.318l.139-.23.126.238c.25.473.647 1.42 1.057 2.6l2.181.286-1.714 1.145c.296.972.575 2.027.785 3.073l1.177.368-1 .617c.152.97.229 1.912.186 2.748 1.458-1.52 2.137-3.566 2.262-5.562.133-2.126-.363-4.17-1.188-5.429l-.166-.253h.294c1.888 0 3.772 1.463 5.341 3.237 1.408 1.591 2.591 3.465 3.334 4.863a15.525 15.525 0 00-.487-4.763c-.513-1.905-1.465-3.77-3.094-5.041l-1.317 1.161v-1.978a8.194 8.194 0 00-2.411-.716l-.175-.026.047-.178c.074-.279.277-.5.543-.671.267-.173.613-.307 1.004-.41.751-.194 1.696-.277 2.643-.26l.29-1.311.773 1.371c.731.072 1.429.203 1.995.392-.276-.494-.761-.993-1.389-1.444a9.004 9.004 0 00-2.734-1.3c-1.002-.284-2.03-.383-2.93-.213-.898.17-1.661.606-2.153 1.39l-.281-.11c.329-2.793-1.166-4.784-3.212-6.149-1.769-1.18-3.93-1.877-5.611-2.2z" fill="#6172C5"/><path d="M133.045 5c1.774.245 4.396.974 6.493 2.374 1.97 1.314 3.501 3.238 3.395 5.92.533-.602 1.244-.948 2.031-1.097.957-.18 2.034-.073 3.065.22a9.3 9.3 0 012.828 1.345c.796.57 1.413 1.247 1.661 1.94l.123.345-.326-.14c-.592-.252-1.434-.428-2.344-.51l-.08-.008-.04-.072-.421-.747-.172.78-.126-.003c-.972-.026-1.938.054-2.686.249-.375.098-.687.222-.917.37-.152.098-.26.203-.33.31a8.374 8.374 0 012.384.756l.088.044v1.49l.995-.878.097.074c1.762 1.328 2.773 3.303 3.308 5.29.534 1.987.598 4 .456 5.424l-.053.533-.237-.475c-.702-1.406-1.982-3.517-3.536-5.274-1.476-1.668-3.167-2.981-4.825-3.121.771 1.337 1.205 3.326 1.078 5.368-.137 2.184-.92 4.453-2.654 6.066l-.301.28.046-.42c.1-.92.02-2.027-.168-3.19l-.018-.11.572-.353-.674-.21-.018-.095a32.526 32.526 0 00-.833-3.254l-.036-.12 1.192-.796-1.518-.199-.032-.093c-.356-1.032-.701-1.882-.947-2.4-2.985 5.047-4.815 11.243-5.888 16.97-1.09 5.816-1.397 11.136-1.346 14.252l.002.165h-3.955l.023-.183c.131-1.06-.042-2.377-.414-3.831-.372-1.452-.94-3.03-1.589-4.608-1.272-3.096-2.847-6.177-3.856-8.324-.195.102-.425.323-.675.715-.3.47-.615 1.162-.923 2.126l-.028.087-.087.02-.768.167.656.498-.028.108c-.413 1.597-.598 3.337-.236 4.603l.166.582-.42-.418c-.758-.754-1.657-2.361-2.067-4.155-.379-1.653-.348-3.499.626-4.992a6.205 6.205 0 00-2.185 1.12c-.932.74-1.92 1.933-2.915 3.94l-.204.412-.084-.456a8.442 8.442 0 01-.143-1.57l.001-.11.53-.213-.438-.777.011-.06a6.27 6.27 0 011.139-2.658l.046-.063h1.031l-.255-.862.076-.07a7.85 7.85 0 012.802-1.638c-.917-.58-2.927-1.287-5.371-.432l-.158-.267c.847-.89 2.201-2.07 3.823-2.391l.183-.036v.681l.664-.73.067.002c.879.015 1.807.312 2.752 1.03-.036-1.133.255-2.054.742-2.793l.036-.054 1.057-.22-.508-.448.133-.124c1.291-1.208 3.143-1.681 4.333-1.76l.421-.028-.305.306a18.352 18.352 0 00-2.135 2.605c-.342.517-.637 1.042-.831 1.534-.142.36-.225.692-.24.986.38-.306.887-.555 1.469-.733a7.66 7.66 0 012.464-.302c1.783.062 3.751.7 5.211 2.232l.307.322-.431-.047c-1.752-.188-3.141-.152-4.219 0l-.111.015-.358-.777-.432.93-.072.017c-.967.238-1.564.57-1.876.84.95.187 2.261.656 3.396 1.52l.064.048v.84l.358-.346.105-.102.104.102c.898.873 1.594 2.055 1.745 3.612l.037.379-.286-.235c-1.999-1.648-4.708-2.385-6.079-2.594 1.152 1.978 3.511 6.637 5.208 12.004 1.424-8.014 3.044-14.108 4.5-18.488 1.373-4.128 2.603-6.739 3.392-7.997a32.29 32.29 0 00-3.267.624l-.056.014-.05-.027-1.222-.66.329 1.172-.152.044c-2.146.617-4.055 1.526-5.348 2.484l-.243.18v-.313c0-.505.246-1.298.69-2.174a12.141 12.141 0 011.956-2.773c1.601-1.7 3.892-3.102 6.721-2.876-1.047-.807-2.862-1.641-4.913-2.162-2.338-.593-4.945-.769-7.027-.054l-.15-.275c1.139-1.06 2.556-2.03 4.134-2.65l.163-.064.188.816.686-1.1.057-.016c1.342-.364 2.775-.456 4.234-.128l.122.027v1.245l.966-.95.089.034c1.242.475 2.486 1.277 3.691 2.487-.105-.964-.414-1.883-.849-2.74l-.058-.113.839-.771h-1.289l-.046-.071c-1.359-2.094-3.361-3.679-4.575-4.4l.096-.301zm.717.447c1.212.838 2.808 2.237 3.971 4h1.945l-1.272 1.171c.485.984.812 2.056.862 3.19l.019.423-.282-.301c-1.241-1.321-2.518-2.18-3.787-2.683l-1.346 1.325v-1.73c-1.343-.279-2.664-.194-3.912.137l-1.01 1.62-.274-1.186c-1.235.508-2.367 1.235-3.335 2.048 2.021-.496 4.387-.289 6.506.249 2.361.6 4.453 1.619 5.445 2.576l.364.352-.49-.073c-2.943-.435-5.326.968-6.98 2.725a11.797 11.797 0 00-1.904 2.697c-.339.67-.545 1.263-.621 1.693 1.282-.887 3.052-1.71 5.017-2.29l-.442-1.58 1.811.977a31.663 31.663 0 013.586-.66l.348-.04-.207.297c-.744 1.072-2.056 3.732-3.546 8.211-1.488 4.475-3.15 10.757-4.598 19.066l-.298.02c-1.784-5.874-4.435-11.002-5.534-12.826l-.17-.281.316.034c1.203.13 4.058.803 6.257 2.468a5.343 5.343 0 00-1.495-2.926l-.769.746v-1.414c-1.196-.889-2.587-1.332-3.491-1.465l-.258-.039.156-.219c.265-.369.959-.837 2.175-1.148l.647-1.39.538 1.166c.992-.13 2.223-.164 3.729-.03-1.352-1.232-3.083-1.762-4.677-1.817a7.366 7.366 0 00-2.368.289c-.692.21-1.243.519-1.584.877l-.214.224-.047-.313c-.069-.447.041-.957.245-1.475.205-.521.513-1.068.863-1.596a18.507 18.507 0 011.865-2.332c-1.085.144-2.519.588-3.585 1.513l.723.641-1.563.324c-.473.742-.739 1.687-.632 2.884l.034.381-.285-.24c-.964-.814-1.899-1.144-2.768-1.175l-1.101 1.21V28.66c-1.197.29-2.243 1.069-3.024 1.806 2.544-.657 4.564.257 5.311.859l.253.204-.31.08c-.821.216-1.945.729-2.923 1.597l.32 1.078h-1.297a5.92 5.92 0 00-1.024 2.398l.564 1.002-.673.27c.002.298.023.607.064.93.939-1.789 1.88-2.905 2.787-3.626.977-.778 1.906-1.088 2.726-1.293l.453-.113-.299.375c-1.151 1.441-1.234 3.342-.836 5.086.329 1.439.981 2.742 1.595 3.55-.188-1.229-.002-2.71.338-4.064l-1.049-.796 1.365-.299c.305-.934.62-1.628.931-2.114.317-.497.642-.798.964-.895l.124-.037.057.122c.998 2.135 2.622 5.3 3.925 8.47.652 1.587 1.226 3.18 1.603 4.653.357 1.391.541 2.688.442 3.774h3.294c-.038-3.16.279-8.418 1.354-14.156 1.094-5.837 2.975-12.182 6.073-17.318l.139-.23.126.238c.25.473.647 1.42 1.057 2.6l2.181.286-1.714 1.145c.296.972.575 2.027.785 3.073l1.177.368-1 .617c.152.97.229 1.912.186 2.748 1.458-1.52 2.137-3.566 2.262-5.562.133-2.126-.363-4.17-1.188-5.429l-.166-.253h.294c1.888 0 3.772 1.463 5.341 3.237 1.408 1.591 2.591 3.465 3.334 4.863a15.525 15.525 0 00-.487-4.763c-.513-1.905-1.465-3.77-3.094-5.041l-1.317 1.161v-1.978a8.197 8.197 0 00-2.411-.716l-.175-.026.047-.178c.074-.279.277-.5.543-.671.267-.173.613-.307 1.004-.41.751-.194 1.696-.277 2.643-.26l.29-1.311.773 1.371c.731.072 1.429.203 1.995.392-.276-.494-.761-.993-1.389-1.444a9.004 9.004 0 00-2.734-1.3c-1.002-.284-2.03-.383-2.93-.213-.898.17-1.661.606-2.153 1.39l-.281-.11c.329-2.793-1.166-4.784-3.212-6.149-1.769-1.18-3.93-1.877-5.611-2.2z" fill="#ED2EA5"/><path d="M269.238 7c-1.774.245-4.396.974-6.493 2.374-1.97 1.314-3.501 3.238-3.395 5.92-.533-.602-1.244-.948-2.031-1.097-.957-.18-2.034-.073-3.065.22a9.3 9.3 0 00-2.828 1.345c-.796.57-1.413 1.247-1.661 1.94l-.124.345.327-.14c.592-.253 1.434-.428 2.344-.51l.079-.008.041-.072.421-.747.172.78.126-.003c.972-.026 1.938.054 2.686.249.375.098.687.222.917.37.152.098.26.203.33.31a8.374 8.374 0 00-2.384.756l-.088.044v1.49l-.995-.878-.097.074c-1.763 1.328-2.773 3.303-3.308 5.29a15.764 15.764 0 00-.456 5.424l.053.533.237-.475c.702-1.406 1.982-3.517 3.536-5.274 1.476-1.668 3.167-2.981 4.825-3.121-.771 1.337-1.205 3.326-1.078 5.368.137 2.184.92 4.453 2.654 6.066l.301.28-.046-.42c-.1-.92-.02-2.027.168-3.19l.018-.11-.572-.353.674-.21.018-.095c.218-1.106.516-2.228.833-3.254l.036-.12-1.192-.796 1.518-.199.032-.093c.356-1.032.701-1.882.947-2.4 2.985 5.047 4.815 11.243 5.888 16.97 1.09 5.816 1.397 11.136 1.346 14.252l-.002.165h3.955l-.023-.183c-.131-1.06.042-2.377.414-3.831.372-1.452.94-3.03 1.589-4.608 1.272-3.096 2.847-6.177 3.856-8.324.195.102.425.323.675.715.3.47.615 1.162.923 2.126l.028.087.087.02.768.167-.656.498.028.108c.413 1.597.598 3.337.236 4.603l-.166.582.42-.418c.758-.754 1.657-2.361 2.067-4.155.378-1.653.348-3.499-.626-4.992.682.201 1.418.51 2.185 1.12.932.74 1.92 1.933 2.915 3.94l.204.412.084-.456a8.442 8.442 0 00.143-1.57l-.001-.11-.53-.213.438-.777-.011-.06a6.27 6.27 0 00-1.139-2.658l-.046-.063h-1.031l.255-.862-.076-.07a7.85 7.85 0 00-2.802-1.638c.917-.58 2.927-1.287 5.371-.432l.157-.267c-.846-.89-2.2-2.07-3.822-2.391l-.183-.036v.681l-.664-.73-.067.002c-.879.015-1.807.312-2.752 1.03.036-1.133-.255-2.054-.742-2.793l-.036-.054-1.057-.22.508-.448-.133-.124c-1.291-1.208-3.143-1.681-4.333-1.76l-.421-.028.305.306c.585.588 1.449 1.571 2.135 2.605.342.517.637 1.042.831 1.534.142.36.225.692.24.986-.38-.306-.887-.555-1.469-.733a7.657 7.657 0 00-2.464-.302c-1.783.062-3.751.7-5.211 2.232l-.307.322.431-.047c1.752-.188 3.141-.152 4.219 0l.111.015.358-.777.432.93.071.017c.968.238 1.565.57 1.877.84-.951.187-2.261.656-3.396 1.52l-.064.048v.84l-.358-.346-.105-.102-.104.102c-.898.873-1.594 2.055-1.745 3.612l-.037.379.286-.235c1.999-1.648 4.707-2.385 6.079-2.594-1.152 1.978-3.511 6.637-5.208 12.004-1.425-8.014-3.044-14.108-4.5-18.488-1.373-4.128-2.603-6.739-3.392-7.997a32.29 32.29 0 013.267.624l.055.014.051-.027 1.222-.66-.329 1.172.152.044c2.146.617 4.055 1.526 5.348 2.484l.243.18v-.313c0-.505-.246-1.298-.69-2.174a12.141 12.141 0 00-1.956-2.773c-1.601-1.7-3.892-3.102-6.721-2.876 1.047-.807 2.862-1.641 4.913-2.162 2.337-.593 4.945-.769 7.027-.054l.15-.275c-1.139-1.06-2.556-2.03-4.134-2.65l-.163-.064-.188.816-.686-1.1-.057-.016c-1.342-.364-2.775-.456-4.234-.128l-.122.027v1.245l-.966-.95-.089.034c-1.242.475-2.486 1.277-3.691 2.487.105-.964.414-1.883.849-2.74l.058-.113-.839-.771h1.289l.046-.071c1.359-2.094 3.361-3.679 4.575-4.4L269.238 7zm-.717.447c-1.212.838-2.808 2.237-3.971 4h-1.945l1.272 1.171c-.485.984-.812 2.056-.862 3.19l-.019.423.282-.301c1.241-1.321 2.518-2.18 3.786-2.683l1.346 1.325v-1.73c1.344-.279 2.665-.194 3.913.137l1.01 1.62.274-1.186c1.234.508 2.367 1.235 3.335 2.048-2.021-.496-4.387-.289-6.506.249-2.361.6-4.453 1.619-5.445 2.576l-.364.352.49-.073c2.943-.435 5.326.968 6.98 2.725a11.797 11.797 0 011.904 2.697c.339.67.545 1.263.621 1.693-1.282-.887-3.053-1.71-5.017-2.29l.442-1.58-1.811.977a31.663 31.663 0 00-3.586-.66l-.348-.04.207.297c.744 1.072 2.056 3.732 3.546 8.211 1.488 4.475 3.15 10.757 4.598 19.066l.298.02c1.784-5.874 4.435-11.002 5.534-12.826l.17-.281-.316.034c-1.203.13-4.058.803-6.257 2.468a5.343 5.343 0 011.495-2.926l.769.746v-1.414c1.196-.889 2.587-1.332 3.491-1.465l.258-.039-.157-.218c-.264-.37-.958-.838-2.175-1.15l-.647-1.389-.537 1.166c-.992-.13-2.223-.164-3.729-.03 1.352-1.232 3.083-1.762 4.677-1.817.862-.03 1.679.08 2.368.289.692.21 1.243.519 1.584.877l.214.224.047-.313c.069-.447-.041-.957-.245-1.475-.205-.521-.513-1.068-.863-1.596a18.507 18.507 0 00-1.865-2.332c1.085.144 2.519.588 3.585 1.513l-.723.641 1.563.324c.473.742.739 1.687.632 2.884l-.034.381.285-.24c.964-.814 1.899-1.144 2.768-1.175l1.101 1.21V30.66c1.197.29 2.243 1.069 3.024 1.806-2.544-.657-4.564.257-5.311.859l-.253.204.31.08c.821.216 1.945.729 2.923 1.597l-.32 1.078h1.297a5.92 5.92 0 011.024 2.398l-.564 1.002.673.27a7.759 7.759 0 01-.064.93c-.939-1.789-1.88-2.905-2.787-3.626-.977-.778-1.906-1.088-2.726-1.293l-.453-.113.299.375c1.151 1.441 1.234 3.342.835 5.086-.329 1.439-.98 2.742-1.594 3.55.188-1.229.002-2.71-.338-4.064l1.049-.796-1.365-.299c-.305-.934-.62-1.628-.931-2.114-.317-.497-.642-.798-.964-.895l-.124-.037-.057.122c-.998 2.135-2.622 5.3-3.925 8.47-.652 1.587-1.226 3.18-1.603 4.653-.357 1.391-.541 2.688-.442 3.774h-3.294c.038-3.16-.279-8.418-1.354-14.156-1.094-5.837-2.975-12.182-6.073-17.318l-.139-.23-.126.238c-.251.473-.647 1.42-1.057 2.6l-2.181.286 1.714 1.145a33.385 33.385 0 00-.786 3.073l-1.176.368 1 .617c-.152.97-.229 1.912-.186 2.748-1.458-1.52-2.137-3.566-2.262-5.562-.133-2.126.363-4.17 1.188-5.429l.166-.253h-.294c-1.888 0-3.772 1.463-5.341 3.237-1.408 1.591-2.591 3.465-3.335 4.863a15.56 15.56 0 01.488-4.763c.513-1.905 1.465-3.77 3.094-5.041l1.317 1.161v-1.978a8.194 8.194 0 012.411-.716l.175-.026-.048-.178c-.073-.279-.276-.5-.542-.671-.267-.173-.613-.307-1.004-.41-.751-.194-1.696-.277-2.643-.26l-.29-1.311-.773 1.371c-.732.072-1.429.203-1.995.392.276-.494.761-.993 1.389-1.444a9.004 9.004 0 012.734-1.3c1.002-.284 2.03-.383 2.93-.213.898.17 1.661.606 2.153 1.39l.281-.11c-.329-2.793 1.166-4.784 3.212-6.149 1.769-1.18 3.93-1.877 5.611-2.2z" fill="#6172C5"/><path d="M268.521 7.447c-1.212.838-2.808 2.237-3.971 4h-1.945l1.272 1.171c-.485.984-.812 2.056-.862 3.19l-.019.423.282-.301c1.241-1.321 2.518-2.18 3.786-2.683l1.346 1.325v-1.73c1.344-.279 2.665-.194 3.913.137l1.01 1.62.274-1.186c1.234.508 2.367 1.235 3.335 2.048-2.021-.496-4.387-.289-6.506.249-2.361.6-4.453 1.619-5.445 2.576l-.364.352.49-.073c2.943-.435 5.326.968 6.98 2.725a11.797 11.797 0 011.904 2.697c.339.67.545 1.263.621 1.693-1.282-.887-3.053-1.71-5.017-2.29l.442-1.58-1.811.977a31.663 31.663 0 00-3.586-.66l-.348-.04.207.297c.744 1.072 2.056 3.732 3.546 8.211 1.488 4.475 3.15 10.757 4.598 19.066l.298.02c1.784-5.874 4.435-11.002 5.534-12.826l.17-.281-.316.034c-1.203.13-4.058.803-6.257 2.468a5.343 5.343 0 011.495-2.926l.769.746v-1.414c1.196-.889 2.587-1.332 3.491-1.465l.258-.039-.157-.218c-.264-.37-.958-.838-2.175-1.15l-.647-1.389-.537 1.166c-.992-.13-2.223-.164-3.729-.03 1.352-1.232 3.083-1.762 4.677-1.817.862-.03 1.679.08 2.368.289.692.21 1.243.519 1.584.877l.214.224.047-.313c.069-.447-.041-.957-.245-1.475-.205-.521-.513-1.068-.863-1.596a18.507 18.507 0 00-1.865-2.332c1.085.144 2.519.588 3.585 1.513l-.723.641 1.563.324c.473.742.739 1.687.632 2.884l-.034.381.285-.24c.964-.814 1.899-1.144 2.768-1.175l1.101 1.21V30.66c1.197.29 2.243 1.069 3.024 1.806-2.544-.657-4.564.257-5.311.859l-.253.204.31.08c.821.216 1.945.729 2.923 1.597l-.32 1.078h1.297a5.92 5.92 0 011.024 2.398l-.564 1.002.673.27a7.759 7.759 0 01-.064.93c-.939-1.789-1.88-2.905-2.787-3.626-.977-.778-1.906-1.088-2.726-1.293l-.453-.113.299.375c1.151 1.441 1.234 3.342.835 5.086-.329 1.439-.98 2.742-1.594 3.55.188-1.229.002-2.71-.338-4.064l1.049-.796-1.365-.299c-.305-.934-.62-1.628-.931-2.114-.317-.497-.642-.798-.964-.895l-.124-.037-.057.122c-.998 2.135-2.622 5.3-3.925 8.47-.652 1.587-1.226 3.18-1.603 4.653-.357 1.391-.541 2.688-.442 3.774h-3.294c.038-3.16-.279-8.418-1.354-14.156-1.094-5.837-2.975-12.182-6.073-17.318l-.139-.23-.126.238c-.251.473-.647 1.42-1.057 2.6l-2.181.286 1.714 1.145a33.385 33.385 0 00-.786 3.073l-1.176.368 1 .617c-.152.97-.229 1.912-.186 2.748-1.458-1.52-2.137-3.566-2.262-5.562-.133-2.126.363-4.17 1.188-5.429l.166-.253h-.294c-1.888 0-3.772 1.463-5.341 3.237-1.408 1.591-2.591 3.465-3.335 4.863a15.56 15.56 0 01.488-4.763c.513-1.905 1.465-3.77 3.094-5.041l1.317 1.161v-1.978a8.194 8.194 0 012.411-.716l.175-.026-.048-.178c-.073-.279-.276-.5-.542-.671-.267-.173-.613-.307-1.004-.41-.751-.194-1.696-.277-2.643-.26l-.29-1.311-.773 1.371c-.732.072-1.429.203-1.995.392.276-.494.761-.993 1.389-1.444a9.004 9.004 0 012.734-1.3c1.002-.284 2.03-.383 2.93-.213.898.17 1.661.606 2.153 1.39l.281-.11c-.329-2.793 1.166-4.784 3.212-6.149 1.769-1.18 3.93-1.877 5.611-2.2z" fill="#6172C5"/><path d="M269.238 5c-1.774.245-4.396.974-6.493 2.374-1.97 1.314-3.501 3.238-3.395 5.92-.533-.602-1.244-.948-2.031-1.097-.957-.18-2.034-.073-3.065.22a9.3 9.3 0 00-2.828 1.345c-.796.57-1.413 1.247-1.661 1.94l-.124.345.327-.14c.592-.252 1.434-.428 2.344-.51l.079-.008.041-.072.421-.747.172.78.126-.003c.972-.026 1.938.054 2.686.249.375.098.687.222.917.37.152.098.26.203.33.31a8.374 8.374 0 00-2.384.756l-.088.044v1.49l-.995-.878-.097.074c-1.763 1.328-2.773 3.303-3.308 5.29a15.764 15.764 0 00-.456 5.424l.053.533.237-.475c.702-1.406 1.982-3.517 3.536-5.274 1.476-1.668 3.167-2.981 4.825-3.121-.771 1.337-1.205 3.326-1.078 5.368.137 2.184.92 4.453 2.654 6.066l.301.28-.046-.42c-.1-.92-.02-2.027.168-3.19l.018-.11-.572-.353.674-.21.018-.095c.218-1.106.516-2.228.833-3.254l.036-.12-1.192-.796 1.518-.199.032-.093c.356-1.032.701-1.882.947-2.4 2.985 5.047 4.815 11.243 5.888 16.97 1.09 5.816 1.397 11.136 1.346 14.252l-.002.165h3.955l-.023-.183c-.131-1.06.042-2.377.414-3.831.372-1.452.94-3.03 1.589-4.608 1.272-3.096 2.847-6.177 3.856-8.324.195.102.425.323.675.715.3.47.615 1.162.923 2.126l.028.087.087.02.768.167-.656.498.028.108c.413 1.597.598 3.337.236 4.603l-.166.582.42-.418c.758-.754 1.657-2.361 2.067-4.155.378-1.653.348-3.499-.626-4.992.682.201 1.418.51 2.185 1.12.932.74 1.92 1.933 2.915 3.94l.204.412.084-.456a8.442 8.442 0 00.143-1.57l-.001-.11-.53-.213.438-.777-.011-.06a6.27 6.27 0 00-1.139-2.658l-.046-.063h-1.031l.255-.862-.076-.07a7.85 7.85 0 00-2.802-1.638c.917-.58 2.927-1.287 5.371-.432l.157-.267c-.846-.89-2.2-2.07-3.822-2.391l-.183-.036v.681l-.664-.73-.067.002c-.879.015-1.807.312-2.752 1.03.036-1.133-.255-2.054-.742-2.793l-.036-.054-1.057-.22.508-.448-.133-.124c-1.291-1.208-3.143-1.681-4.333-1.76l-.421-.028.305.306c.585.588 1.449 1.571 2.135 2.605.342.517.637 1.042.831 1.534.142.36.225.692.24.986-.38-.306-.887-.555-1.469-.733a7.66 7.66 0 00-2.464-.302c-1.783.062-3.751.7-5.211 2.232l-.307.322.431-.047c1.752-.188 3.141-.152 4.219 0l.111.015.358-.777.432.93.071.017c.968.238 1.565.57 1.877.84-.951.187-2.261.656-3.396 1.52l-.064.048v.84l-.358-.346-.105-.102-.104.102c-.898.873-1.594 2.055-1.745 3.612l-.037.379.286-.235c1.999-1.648 4.707-2.385 6.079-2.594-1.152 1.978-3.511 6.637-5.208 12.004-1.425-8.014-3.044-14.108-4.5-18.488-1.373-4.128-2.603-6.739-3.392-7.997a32.29 32.29 0 013.267.624l.055.014.051-.027 1.222-.66-.329 1.172.152.044c2.146.617 4.055 1.526 5.348 2.484l.243.18v-.313c0-.505-.246-1.298-.69-2.174a12.141 12.141 0 00-1.956-2.773c-1.601-1.7-3.892-3.102-6.721-2.876 1.047-.807 2.862-1.641 4.913-2.162 2.337-.593 4.945-.769 7.027-.054l.15-.275c-1.139-1.06-2.556-2.03-4.134-2.65l-.163-.064-.188.816-.686-1.1-.057-.016c-1.342-.364-2.775-.456-4.234-.128l-.122.027v1.245l-.966-.95-.089.034c-1.242.475-2.486 1.277-3.691 2.487.105-.964.414-1.883.849-2.74l.058-.113-.839-.771h1.289l.046-.071c1.359-2.094 3.361-3.679 4.575-4.4L269.238 5zm-.717.447c-1.212.838-2.808 2.237-3.971 4h-1.945l1.272 1.171c-.485.984-.812 2.056-.862 3.19l-.019.423.282-.301c1.241-1.321 2.518-2.18 3.786-2.683l1.346 1.325v-1.73c1.344-.279 2.665-.194 3.913.137l1.01 1.62.274-1.186c1.234.508 2.367 1.235 3.335 2.048-2.021-.496-4.387-.289-6.506.249-2.361.6-4.453 1.619-5.445 2.576l-.364.352.49-.073c2.943-.435 5.326.968 6.98 2.725a11.797 11.797 0 011.904 2.697c.339.67.545 1.263.621 1.693-1.282-.887-3.053-1.71-5.017-2.29l.442-1.58-1.811.977a31.663 31.663 0 00-3.586-.66l-.348-.04.207.297c.744 1.072 2.056 3.732 3.546 8.211 1.488 4.475 3.15 10.757 4.598 19.066l.298.02c1.784-5.874 4.435-11.002 5.534-12.826l.17-.281-.316.034c-1.203.13-4.058.803-6.257 2.468a5.343 5.343 0 011.495-2.926l.769.746v-1.414c1.196-.889 2.587-1.332 3.491-1.465l.258-.039-.157-.219c-.264-.369-.958-.837-2.175-1.148l-.647-1.39-.537 1.166c-.992-.13-2.223-.164-3.729-.03 1.352-1.232 3.083-1.762 4.677-1.817.862-.03 1.679.08 2.368.289.692.21 1.243.519 1.584.877l.214.224.047-.313c.069-.447-.041-.957-.245-1.475-.205-.521-.513-1.068-.863-1.596a18.507 18.507 0 00-1.865-2.332c1.085.144 2.519.588 3.585 1.513l-.723.641 1.563.324c.473.742.739 1.687.632 2.884l-.034.381.285-.24c.964-.814 1.899-1.144 2.768-1.175l1.101 1.21V28.66c1.197.29 2.243 1.069 3.024 1.806-2.544-.657-4.564.257-5.311.859l-.253.204.31.08c.821.216 1.945.729 2.923 1.597l-.32 1.078h1.297a5.92 5.92 0 011.024 2.398l-.564 1.002.673.27a7.759 7.759 0 01-.064.93c-.939-1.789-1.88-2.905-2.787-3.626-.977-.778-1.906-1.088-2.726-1.293l-.453-.113.299.375c1.151 1.441 1.234 3.342.835 5.086-.329 1.439-.98 2.742-1.594 3.55.188-1.229.002-2.71-.338-4.064l1.049-.796-1.365-.299c-.305-.934-.62-1.628-.931-2.114-.317-.497-.642-.798-.964-.895l-.124-.037-.057.122c-.998 2.135-2.622 5.3-3.925 8.47-.652 1.587-1.226 3.18-1.603 4.653-.357 1.391-.541 2.688-.442 3.774h-3.294c.038-3.16-.279-8.418-1.354-14.156-1.094-5.837-2.975-12.182-6.073-17.318l-.139-.23-.126.238c-.251.473-.647 1.42-1.057 2.6l-2.181.286 1.714 1.145a33.385 33.385 0 00-.786 3.073l-1.176.368 1 .617c-.152.97-.229 1.912-.186 2.748-1.458-1.52-2.137-3.566-2.262-5.562-.133-2.126.363-4.17 1.188-5.429l.166-.253h-.294c-1.888 0-3.772 1.463-5.341 3.237-1.408 1.591-2.591 3.465-3.335 4.863a15.56 15.56 0 01.488-4.763c.513-1.905 1.465-3.77 3.094-5.041l1.317 1.161v-1.978a8.197 8.197 0 012.411-.716l.175-.026-.048-.178c-.073-.279-.276-.5-.542-.671-.267-.173-.613-.307-1.004-.41-.751-.194-1.696-.277-2.643-.26l-.29-1.311-.773 1.371c-.732.072-1.429.203-1.995.392.276-.494.761-.993 1.389-1.444a9.004 9.004 0 012.734-1.3c1.002-.284 2.03-.383 2.93-.213.898.17 1.661.606 2.153 1.39l.281-.11c-.329-2.793 1.166-4.784 3.212-6.149 1.769-1.18 3.93-1.877 5.611-2.2z" fill="#ED2EA5"/><path d="M97.776 3c2.795.38 6.924 1.513 10.228 3.687 3.102 2.042 5.513 5.03 5.347 9.194.84-.934 1.959-1.471 3.198-1.702 1.508-.282 3.204-.114 4.828.34 1.626.454 3.196 1.2 4.454 2.09 1.253.887 2.226 1.936 2.616 3.012l.194.538-.513-.217c-.933-.393-2.26-.666-3.693-.795l-.125-.011-.064-.111-.663-1.161-.271 1.212-.198-.005c-1.53-.04-3.053.084-4.231.387-.59.151-1.082.344-1.444.575a1.68 1.68 0 00-.519.482c1.403.228 2.649.63 3.754 1.173l.139.069v2.313l1.567-1.363.153.114c2.776 2.064 4.367 5.132 5.21 8.218.842 3.086.941 6.21.718 8.423l-.084.828-.373-.737c-1.105-2.184-3.121-5.463-5.569-8.192-2.324-2.59-4.988-4.63-7.599-4.847 1.214 2.077 1.898 5.166 1.697 8.337-.216 3.393-1.449 6.917-4.179 9.422l-.474.435.072-.651c.157-1.43.032-3.15-.265-4.956l-.028-.17.901-.55-1.061-.326-.03-.147a50.186 50.186 0 00-1.31-5.054l-.058-.185 1.878-1.237-2.391-.31-.051-.144c-.561-1.603-1.103-2.924-1.491-3.728-4.701 7.839-7.583 17.463-9.274 26.357-1.716 9.034-2.2 17.296-2.12 22.137l.004.256h-6.23l.036-.284c.206-1.648-.065-3.692-.652-5.95-.586-2.256-1.48-4.706-2.502-7.158-2.004-4.808-4.483-9.593-6.073-12.928-.307.158-.67.502-1.064 1.11-.472.729-.967 1.806-1.453 3.301l-.045.137-.136.03-1.21.26 1.033.774-.044.167c-.65 2.48-.942 5.182-.372 7.15l.262.903-.661-.648c-1.195-1.171-2.61-3.668-3.257-6.454-.595-2.568-.548-5.435.987-7.754-1.075.312-2.233.791-3.442 1.739-1.467 1.15-3.024 3.003-4.59 6.12l-.322.64-.132-.709c-.16-.86-.23-1.67-.225-2.437l.001-.17.835-.333-.69-1.207.017-.092a9.667 9.667 0 011.794-4.13l.073-.097h1.624l-.403-1.338.12-.108a12.413 12.413 0 014.414-2.545c-1.444-.902-4.61-1.999-8.459-.67l-.249-.417c1.334-1.38 3.466-3.213 6.021-3.713l.288-.056v1.058l1.046-1.133.106.002c1.384.024 2.846.485 4.333 1.6-.056-1.76.403-3.19 1.17-4.338l.056-.084 1.664-.34-.799-.698.21-.193c2.033-1.875 4.95-2.61 6.823-2.732l.664-.044-.48.476c-.923.913-2.283 2.44-3.362 4.045-.54.803-1.005 1.62-1.31 2.383-.223.558-.355 1.075-.378 1.53.598-.474 1.397-.861 2.314-1.136 1.138-.342 2.476-.518 3.881-.47 2.807.096 5.907 1.086 8.207 3.466l.483.5-.68-.072c-2.757-.293-4.945-.236-6.643-.001l-.174.024-.565-1.206-.68 1.442-.113.028c-1.524.37-2.465.885-2.955 1.304 1.496.291 3.56 1.02 5.349 2.361l.1.075v1.306l.564-.539.165-.157.165.158c1.413 1.356 2.51 3.192 2.747 5.61l.058.588-.45-.365c-3.148-2.559-7.414-3.704-9.573-4.029 1.813 3.073 5.529 10.31 8.202 18.645 2.243-12.447 4.793-21.913 7.087-28.715 2.162-6.411 4.1-10.467 5.342-12.42a51.525 51.525 0 00-5.146.968l-.087.02-.079-.041-1.925-1.024.518 1.82-.239.068c-3.38.958-6.387 2.37-8.423 3.858l-.383.28v-.486c0-.785.388-2.016 1.087-3.377a18.814 18.814 0 013.081-4.307c2.522-2.64 6.13-4.818 10.585-4.468-1.649-1.252-4.507-2.548-7.738-3.357-3.681-.921-7.789-1.194-11.067-.084l-.237-.426c1.795-1.647 4.026-3.155 6.51-4.117l.258-.1.296 1.268 1.08-1.709.09-.024c2.114-.566 4.371-.708 6.669-.2l.192.043V13.6l1.521-1.476.141.053c1.957.74 3.915 1.985 5.814 3.864-.166-1.497-.652-2.925-1.339-4.255l-.091-.176 1.322-1.199h-2.03l-.072-.11c-2.14-3.251-5.293-5.713-7.207-6.833L97.776 3zm1.13.694c1.909 1.302 4.423 3.475 6.254 6.214h3.064l-2.003 1.818c.764 1.528 1.278 3.194 1.358 4.956l.03.655-.446-.467c-1.954-2.052-3.965-3.387-5.963-4.167l-2.12 2.058v-2.686c-2.115-.434-4.197-.302-6.162.212l-1.59 2.517-.432-1.843c-1.945.788-3.728 1.918-5.253 3.18 3.184-.77 6.91-.448 10.247.387 3.72.93 7.014 2.514 8.575 4.001l.574.547-.772-.113c-4.635-.676-8.387 1.503-10.994 4.232a18.31 18.31 0 00-2.997 4.19c-.535 1.04-.86 1.96-.978 2.628 2.019-1.377 4.807-2.655 7.901-3.556l-.697-2.454 2.853 1.517a50.524 50.524 0 015.647-1.024l.549-.064-.325.462c-1.173 1.666-3.24 5.797-5.586 12.754-2.343 6.95-4.96 16.706-7.241 29.612l-.47.031c-2.81-9.123-6.985-17.087-8.716-19.92l-.268-.438.498.054c1.894.202 6.392 1.246 9.854 3.833-.315-1.9-1.208-3.39-2.354-4.544l-1.212 1.158v-2.196c-1.883-1.38-4.073-2.068-5.497-2.276l-.407-.06.247-.34c.416-.573 1.51-1.3 3.425-1.784l1.02-2.157.846 1.81c1.562-.202 3.502-.255 5.873-.046-2.13-1.914-4.856-2.738-7.366-2.823-1.358-.047-2.645.123-3.73.45-1.089.326-1.957.804-2.495 1.36l-.336.349-.075-.486c-.108-.695.064-1.487.386-2.291.324-.81.809-1.659 1.36-2.479.923-1.374 2.044-2.686 2.936-3.622-1.708.224-3.966.913-5.646 2.35l1.14.996-2.463.503c-.745 1.153-1.164 2.62-.995 4.48l.053.592-.448-.373c-1.52-1.266-2.99-1.778-4.36-1.826l-1.734 1.88v-1.699c-1.885.452-3.533 1.661-4.763 2.806 4.007-1.02 7.188.4 8.365 1.334l.4.317-.49.126c-1.292.334-3.063 1.13-4.603 2.478l.504 1.676h-2.044a9.143 9.143 0 00-1.612 3.723l.889 1.556-1.06.422c.003.461.036.942.1 1.442 1.479-2.778 2.96-4.511 4.389-5.631 1.54-1.208 3.003-1.69 4.294-2.008l.713-.176-.47.582c-1.813 2.239-1.944 5.191-1.316 7.9.518 2.234 1.544 4.26 2.512 5.513-.296-1.908-.005-4.208.531-6.31l-1.651-1.238 2.15-.463c.48-1.452.976-2.53 1.465-3.285.5-.772 1.012-1.24 1.52-1.39l.195-.057.089.189c1.572 3.317 4.13 8.234 6.182 13.157 1.027 2.464 1.93 4.938 2.525 7.226.562 2.161.85 4.174.695 5.862h5.19c-.061-4.907.438-13.075 2.132-21.986 1.723-9.067 4.685-18.922 9.564-26.9l.218-.358.199.37c.395.736 1.019 2.206 1.666 4.038l3.435.445-2.7 1.779c.466 1.51.906 3.149 1.237 4.774l1.853.57-1.575.96c.239 1.506.361 2.97.293 4.266 2.297-2.36 3.365-5.538 3.562-8.637.21-3.303-.572-6.479-1.87-8.433l-.261-.393h.461c2.975 0 5.942 2.272 8.413 5.027 2.218 2.472 4.081 5.382 5.252 7.553.117-2.074-.046-4.752-.768-7.397-.807-2.958-2.308-5.855-4.873-7.83l-2.074 1.804v-3.073c-1.109-.526-2.368-.91-3.797-1.113l-.276-.039.075-.277c.116-.433.436-.775.855-1.042.42-.268.965-.477 1.581-.635 1.182-.304 2.67-.431 4.162-.406l.457-2.036 1.217 2.13c1.153.11 2.251.314 3.143.608-.435-.767-1.199-1.542-2.188-2.241-1.211-.857-2.73-1.58-4.306-2.02-1.578-.442-3.198-.596-4.616-.332-1.413.264-2.615.941-3.389 2.159l-.444-.17c.518-4.338-1.836-7.43-5.059-9.55-2.785-1.834-6.189-2.916-8.836-3.418z" fill="#FA8057"/><path d="M98.907 3.694c1.908 1.302 4.422 3.475 6.253 6.214h3.064l-2.003 1.818c.764 1.528 1.278 3.194 1.358 4.956l.03.655-.446-.467c-1.954-2.052-3.965-3.387-5.963-4.167l-2.12 2.058v-2.686c-2.115-.434-4.197-.302-6.162.212l-1.59 2.517-.432-1.843c-1.945.788-3.728 1.918-5.253 3.18 3.184-.77 6.91-.448 10.247.387 3.72.93 7.014 2.514 8.575 4.001l.574.547-.772-.113c-4.635-.676-8.387 1.503-10.994 4.232a18.31 18.31 0 00-2.997 4.19c-.535 1.04-.86 1.96-.978 2.628 2.019-1.377 4.807-2.655 7.901-3.556l-.697-2.454 2.853 1.517a50.524 50.524 0 015.647-1.024l.549-.064-.325.462c-1.173 1.666-3.24 5.797-5.586 12.754-2.343 6.95-4.96 16.706-7.241 29.612l-.47.031c-2.81-9.123-6.985-17.087-8.716-19.92l-.268-.438.498.054c1.894.202 6.392 1.246 9.854 3.833-.315-1.9-1.208-3.39-2.354-4.544l-1.212 1.158v-2.196c-1.883-1.38-4.073-2.068-5.497-2.276l-.407-.06.247-.34c.416-.573 1.51-1.3 3.425-1.784l1.02-2.157.846 1.81c1.562-.202 3.502-.255 5.873-.046-2.13-1.914-4.856-2.738-7.366-2.823-1.358-.047-2.645.123-3.73.45-1.089.326-1.957.804-2.495 1.36l-.336.349-.075-.486c-.108-.695.064-1.487.386-2.291.324-.81.809-1.659 1.36-2.479.923-1.374 2.044-2.686 2.936-3.622-1.708.224-3.966.913-5.646 2.35l1.14.996-2.463.503c-.745 1.153-1.164 2.62-.995 4.48l.053.592-.448-.373c-1.52-1.266-2.99-1.778-4.36-1.826l-1.734 1.88v-1.699c-1.885.452-3.533 1.661-4.763 2.806 4.007-1.02 7.188.4 8.365 1.334l.4.317-.49.126c-1.292.334-3.063 1.13-4.603 2.478l.504 1.676h-2.044a9.143 9.143 0 00-1.612 3.723l.889 1.556-1.06.422c.003.461.036.942.1 1.442 1.479-2.778 2.96-4.511 4.389-5.631 1.54-1.208 3.003-1.69 4.294-2.008l.713-.176-.47.582c-1.813 2.239-1.944 5.191-1.316 7.9.518 2.234 1.544 4.26 2.512 5.513-.296-1.908-.005-4.208.531-6.31l-1.651-1.238 2.15-.463c.48-1.452.976-2.53 1.465-3.285.5-.772 1.012-1.24 1.52-1.39l.195-.057.089.189c1.572 3.317 4.13 8.234 6.182 13.157 1.027 2.464 1.93 4.938 2.525 7.226.562 2.161.85 4.174.695 5.862h5.19c-.061-4.907.438-13.075 2.132-21.986 1.723-9.067 4.685-18.922 9.564-26.9l.218-.358.199.37c.395.736 1.019 2.206 1.666 4.038l3.435.445-2.7 1.779c.466 1.51.906 3.149 1.237 4.774l1.853.57-1.575.96c.239 1.506.361 2.97.293 4.266 2.297-2.36 3.365-5.538 3.562-8.637.21-3.303-.572-6.479-1.87-8.433l-.261-.393h.461c2.975 0 5.942 2.272 8.413 5.027 2.218 2.472 4.081 5.382 5.252 7.553.117-2.074-.046-4.752-.768-7.397-.807-2.958-2.308-5.855-4.873-7.83l-2.074 1.804v-3.073c-1.109-.526-2.368-.91-3.797-1.113l-.276-.039.075-.277c.116-.433.436-.775.855-1.042.42-.268.965-.477 1.581-.635 1.182-.304 2.67-.431 4.162-.406l.457-2.036 1.217 2.13c1.153.11 2.251.314 3.143.608-.435-.767-1.199-1.542-2.188-2.241-1.211-.857-2.73-1.58-4.306-2.02-1.578-.442-3.198-.596-4.616-.332-1.413.264-2.615.941-3.389 2.159l-.444-.17c.518-4.338-1.836-7.43-5.059-9.55-2.785-1.834-6.189-2.916-8.836-3.418z" fill="#FA8057"/><path d="M97.776 0c2.795.38 6.924 1.513 10.228 3.687 3.102 2.042 5.513 5.03 5.347 9.194.839-.934 1.959-1.471 3.198-1.702 1.508-.282 3.204-.114 4.828.34 1.626.454 3.196 1.2 4.454 2.09 1.253.887 2.226 1.936 2.616 3.012l.194.538-.513-.217c-.933-.393-2.26-.666-3.693-.795l-.125-.011-.064-.111-.663-1.161-.271 1.212-.198-.005c-1.53-.04-3.053.084-4.231.387-.59.151-1.082.344-1.444.575a1.68 1.68 0 00-.519.482c1.403.228 2.649.63 3.754 1.173l.139.069v2.313l1.567-1.363.153.114c2.776 2.064 4.367 5.132 5.21 8.218.842 3.086.941 6.21.718 8.423l-.084.828-.373-.737c-1.105-2.184-3.121-5.463-5.569-8.192-2.324-2.59-4.988-4.63-7.599-4.847 1.214 2.077 1.898 5.166 1.697 8.337-.216 3.393-1.449 6.917-4.179 9.422l-.474.435.072-.651c.157-1.43.032-3.15-.265-4.956l-.028-.17.901-.55-1.061-.326-.03-.147a50.193 50.193 0 00-1.31-5.054l-.058-.185 1.878-1.237-2.391-.31-.051-.144c-.561-1.603-1.103-2.924-1.491-3.728-4.701 7.839-7.583 17.463-9.274 26.357-1.716 9.034-2.2 17.297-2.12 22.137l.004.256h-6.23l.036-.284c.206-1.648-.065-3.692-.652-5.95-.586-2.256-1.48-4.706-2.502-7.158-2.004-4.808-4.483-9.593-6.073-12.928-.307.158-.67.502-1.064 1.11-.472.729-.967 1.806-1.453 3.301l-.045.137-.136.03-1.21.26 1.033.774-.044.167c-.65 2.48-.942 5.182-.372 7.15l.262.903-.661-.648c-1.195-1.171-2.61-3.668-3.257-6.454-.595-2.568-.548-5.435.987-7.754-1.075.312-2.233.791-3.442 1.739-1.467 1.15-3.024 3.003-4.59 6.12l-.322.64-.132-.709c-.16-.86-.23-1.67-.225-2.437l.001-.17.835-.333-.69-1.207.017-.092a9.667 9.667 0 011.794-4.13l.073-.097h1.624l-.403-1.338.12-.108a12.413 12.413 0 014.414-2.545c-1.444-.902-4.61-1.999-8.459-.67l-.249-.417c1.334-1.38 3.466-3.213 6.021-3.713l.288-.056v1.058l1.046-1.133.106.002c1.384.024 2.846.485 4.333 1.6-.056-1.76.403-3.19 1.17-4.338l.056-.084 1.664-.34-.799-.698.21-.193c2.033-1.875 4.95-2.61 6.823-2.732l.664-.044-.48.476c-.923.913-2.283 2.44-3.362 4.045-.54.803-1.005 1.62-1.31 2.383-.223.558-.355 1.075-.378 1.53.598-.474 1.397-.861 2.314-1.136 1.138-.342 2.476-.518 3.881-.47 2.807.096 5.907 1.086 8.207 3.466l.483.5-.68-.072c-2.757-.293-4.945-.236-6.643-.001l-.174.024-.565-1.206-.68 1.442-.113.028c-1.524.37-2.465.885-2.955 1.304 1.496.291 3.56 1.02 5.349 2.361l.1.075v1.306l.564-.539.165-.157.165.158c1.413 1.356 2.51 3.192 2.747 5.61l.058.588-.45-.365c-3.148-2.559-7.414-3.704-9.573-4.029 1.813 3.073 5.529 10.31 8.202 18.645 2.243-12.447 4.793-21.913 7.087-28.715 2.162-6.411 4.1-10.467 5.342-12.42a51.525 51.525 0 00-5.146.968l-.087.02-.079-.041-1.925-1.024.518 1.82-.239.068c-3.38.958-6.387 2.37-8.423 3.858l-.383.28v-.486c0-.785.388-2.016 1.087-3.377a18.814 18.814 0 013.081-4.307c2.522-2.64 6.13-4.818 10.585-4.468-1.649-1.252-4.507-2.548-7.738-3.357-3.681-.921-7.789-1.194-11.067-.084l-.237-.426c1.795-1.647 4.026-3.155 6.51-4.117l.258-.1.296 1.268 1.08-1.709.09-.024c2.114-.566 4.371-.708 6.669-.2l.192.043V10.6l1.521-1.476.141.053c1.957.74 3.915 1.985 5.814 3.864-.166-1.497-.652-2.925-1.339-4.255l-.091-.176 1.322-1.199h-2.03l-.072-.11c-2.14-3.251-5.293-5.713-7.207-6.833L97.776 0zm1.13.694c1.909 1.302 4.423 3.475 6.254 6.215h3.064l-2.003 1.817c.764 1.528 1.278 3.194 1.358 4.956l.03.655-.446-.467c-1.954-2.052-3.965-3.387-5.963-4.167l-2.12 2.058V9.075c-2.115-.434-4.197-.302-6.162.212l-1.59 2.517-.432-1.843c-1.945.789-3.728 1.918-5.253 3.18 3.184-.77 6.91-.448 10.247.387 3.72.93 7.014 2.514 8.575 4.001l.574.547-.772-.113c-4.635-.676-8.387 1.503-10.994 4.232a18.31 18.31 0 00-2.997 4.19c-.535 1.04-.86 1.96-.978 2.628 2.019-1.377 4.807-2.655 7.901-3.557l-.697-2.453 2.853 1.517a50.524 50.524 0 015.647-1.024l.549-.064-.325.462c-1.173 1.666-3.24 5.797-5.586 12.754-2.343 6.95-4.96 16.706-7.241 29.612l-.47.031c-2.81-9.123-6.985-17.087-8.716-19.92l-.268-.438.498.054c1.894.202 6.392 1.246 9.854 3.833-.315-1.9-1.208-3.39-2.354-4.544l-1.212 1.158v-2.196c-1.883-1.38-4.073-2.068-5.497-2.276l-.407-.06.247-.34c.416-.573 1.51-1.3 3.425-1.784l1.02-2.157.846 1.81c1.562-.202 3.502-.255 5.873-.046-2.13-1.914-4.856-2.738-7.366-2.823-1.358-.047-2.645.123-3.73.45-1.089.326-1.957.804-2.495 1.36l-.336.349-.075-.486c-.108-.695.064-1.487.386-2.291.324-.81.809-1.659 1.36-2.479.923-1.374 2.044-2.686 2.936-3.622-1.708.224-3.966.913-5.646 2.35l1.14.996-2.463.503c-.745 1.153-1.164 2.62-.995 4.48l.053.592-.448-.373c-1.52-1.266-2.99-1.778-4.36-1.826l-1.734 1.88v-1.699c-1.885.452-3.533 1.661-4.763 2.806 4.007-1.02 7.188.4 8.365 1.334l.4.317-.49.126c-1.292.334-3.063 1.13-4.603 2.478l.504 1.676h-2.044a9.143 9.143 0 00-1.612 3.723l.889 1.556-1.06.422c.003.461.036.942.1 1.442 1.479-2.778 2.96-4.511 4.389-5.631 1.54-1.208 3.003-1.69 4.294-2.008l.713-.176-.47.582c-1.813 2.239-1.944 5.191-1.316 7.9.518 2.234 1.544 4.26 2.512 5.513-.296-1.908-.005-4.208.531-6.31l-1.651-1.238 2.15-.463c.48-1.452.976-2.53 1.465-3.285.5-.772 1.012-1.24 1.52-1.39l.195-.057.089.189c1.572 3.317 4.13 8.234 6.182 13.157 1.027 2.464 1.93 4.938 2.525 7.226.562 2.161.85 4.174.695 5.862h5.19c-.061-4.907.438-13.075 2.132-21.986 1.723-9.067 4.685-18.922 9.564-26.9l.218-.358.199.37c.395.736 1.019 2.206 1.666 4.038l3.435.445-2.7 1.779c.466 1.51.906 3.149 1.237 4.774l1.853.57-1.575.96c.239 1.506.361 2.97.293 4.266 2.297-2.36 3.365-5.538 3.562-8.637.21-3.303-.572-6.479-1.87-8.433l-.261-.393h.461c2.975 0 5.942 2.272 8.413 5.027 2.218 2.472 4.081 5.382 5.252 7.553.117-2.074-.046-4.752-.768-7.397-.807-2.958-2.308-5.855-4.873-7.83l-2.074 1.804v-3.073c-1.109-.526-2.368-.91-3.797-1.113l-.276-.039.075-.277c.116-.433.436-.775.855-1.042.42-.268.965-.477 1.581-.635 1.182-.304 2.67-.431 4.162-.406l.457-2.036 1.217 2.13c1.153.11 2.251.315 3.143.608-.435-.767-1.199-1.542-2.188-2.241-1.211-.857-2.73-1.58-4.306-2.02-1.578-.442-3.198-.596-4.616-.332-1.413.264-2.615.941-3.389 2.159l-.444-.17c.518-4.338-1.836-7.43-5.059-9.55-2.785-1.834-6.189-2.916-8.836-3.418z" fill="#ED2EA5"/><path d="M304.507 3c-2.795.38-6.924 1.513-10.228 3.687-3.102 2.042-5.513 5.03-5.347 9.194-.84-.934-1.959-1.471-3.198-1.702-1.508-.282-3.204-.114-4.828.34-1.626.454-3.196 1.2-4.454 2.09-1.253.887-2.226 1.936-2.616 3.012l-.195.538.514-.217c.933-.393 2.26-.666 3.693-.795l.125-.011.064-.111.663-1.161.271 1.212.198-.005c1.53-.04 3.052.084 4.231.387.59.151 1.082.344 1.444.575.238.152.41.314.519.482a13.332 13.332 0 00-3.755 1.173l-.138.069v2.313l-1.567-1.363-.153.114c-2.776 2.064-4.367 5.132-5.21 8.218-.842 3.086-.941 6.21-.718 8.423l.084.828.373-.737c1.105-2.184 3.121-5.463 5.569-8.192 2.324-2.59 4.988-4.63 7.599-4.847-1.214 2.077-1.898 5.166-1.697 8.337.216 3.393 1.448 6.917 4.179 9.422l.474.435-.072-.651c-.157-1.43-.032-3.15.265-4.956l.028-.17-.901-.55 1.061-.326.03-.147c.343-1.718.812-3.46 1.31-5.054l.058-.185-1.878-1.237 2.391-.31.051-.144c.561-1.603 1.103-2.924 1.491-3.728 4.701 7.839 7.583 17.463 9.274 26.357 1.716 9.034 2.201 17.296 2.12 22.137l-.004.256h6.229l-.035-.284c-.207-1.648.065-3.692.652-5.95.586-2.256 1.48-4.706 2.502-7.158 2.004-4.808 4.483-9.593 6.073-12.928.307.158.67.502 1.064 1.11.471.729.967 1.806 1.453 3.301l.045.137.136.03 1.209.26-1.032.774.044.167c.65 2.48.942 5.182.372 7.15l-.262.903.661-.648c1.195-1.171 2.611-3.668 3.257-6.454.595-2.568.548-5.435-.987-7.754 1.075.312 2.233.791 3.442 1.739 1.467 1.15 3.024 3.003 4.59 6.12l.322.64.132-.709c.16-.86.231-1.67.225-2.437l-.001-.17-.836-.333.69-1.207-.016-.092a9.674 9.674 0 00-1.794-4.13l-.073-.097h-1.624l.402-1.338-.119-.108a12.409 12.409 0 00-4.414-2.545c1.444-.902 4.61-1.999 8.459-.67l.248-.417c-1.333-1.38-3.465-3.213-6.02-3.713l-.288-.056v1.058l-1.046-1.133-.106.002c-1.384.024-2.846.485-4.333 1.6.056-1.76-.403-3.19-1.17-4.338l-.056-.084-1.664-.34.799-.698-.21-.193c-2.033-1.875-4.95-2.61-6.823-2.732l-.664-.044.48.476c.923.913 2.283 2.44 3.362 4.045.54.803 1.005 1.62 1.31 2.383.223.558.355 1.075.378 1.53-.598-.474-1.397-.861-2.314-1.136-1.138-.342-2.476-.518-3.881-.47-2.807.096-5.907 1.086-8.207 3.466l-.483.5.679-.072c2.758-.293 4.946-.236 6.644-.001l.174.024.565-1.206.681 1.442.112.028c1.524.37 2.465.885 2.955 1.304-1.497.291-3.561 1.02-5.349 2.361l-.1.075v1.306l-.564-.539-.165-.157-.165.158c-1.413 1.356-2.51 3.192-2.747 5.61l-.058.588.449-.365c3.149-2.559 7.415-3.704 9.574-4.029-1.813 3.073-5.529 10.31-8.202 18.645-2.243-12.447-4.793-21.913-7.087-28.715-2.162-6.411-4.1-10.467-5.342-12.42 1.378.181 3.203.5 5.146.968l.087.02.079-.041 1.925-1.024-.518 1.82.239.068c3.38.958 6.387 2.37 8.423 3.858l.383.28v-.486c0-.785-.388-2.016-1.087-3.377a18.817 18.817 0 00-3.081-4.307c-2.522-2.64-6.129-4.818-10.585-4.468 1.649-1.252 4.507-2.548 7.738-3.357 3.681-.921 7.789-1.194 11.067-.084l.237-.426c-1.795-1.647-4.026-3.155-6.511-4.117l-.257-.1-.296 1.268-1.08-1.709-.091-.024c-2.113-.566-4.37-.708-6.668-.2l-.192.043V13.6l-1.521-1.476-.141.053c-1.957.74-3.915 1.985-5.814 3.864.166-1.497.652-2.925 1.339-4.255l.091-.176-1.322-1.199h2.03l.072-.11c2.14-3.251 5.293-5.713 7.207-6.833L304.507 3zm-1.131.694c-1.908 1.302-4.422 3.475-6.253 6.214h-3.064l2.003 1.818c-.764 1.528-1.278 3.194-1.358 4.956l-.03.655.445-.467c1.955-2.052 3.966-3.387 5.964-4.167l2.12 2.058v-2.686c2.115-.434 4.197-.302 6.162.212l1.591 2.517.431-1.843c1.944.788 3.728 1.918 5.253 3.18-3.184-.77-6.91-.448-10.247.387-3.719.93-7.014 2.514-8.575 4.001l-.575.547.773-.113c4.635-.676 8.387 1.503 10.994 4.232a18.34 18.34 0 012.997 4.19c.535 1.04.859 1.96.978 2.628-2.019-1.377-4.807-2.655-7.901-3.556l.697-2.454-2.853 1.517a50.5 50.5 0 00-5.648-1.024l-.548-.064.325.462c1.173 1.666 3.24 5.797 5.586 12.754 2.343 6.95 4.961 16.706 7.241 29.612l.471.031c2.809-9.123 6.984-17.087 8.715-19.92l.268-.438-.498.054c-1.894.202-6.392 1.246-9.854 3.833.315-1.9 1.208-3.39 2.354-4.544l1.211 1.158v-2.196c1.884-1.38 4.074-2.068 5.498-2.276l.407-.06-.247-.34c-.416-.573-1.51-1.3-3.425-1.784l-1.019-2.157-.847 1.81c-1.562-.202-3.502-.255-5.873-.046 2.13-1.914 4.856-2.738 7.366-2.823 1.358-.047 2.645.123 3.73.45 1.089.326 1.957.804 2.495 1.36l.336.349.075-.486c.108-.695-.065-1.487-.386-2.291-.324-.81-.809-1.659-1.36-2.479-.923-1.374-2.044-2.686-2.936-3.622 1.708.224 3.966.913 5.646 2.35l-1.139.996 2.462.503c.745 1.153 1.164 2.62.995 4.48l-.053.592.448-.373c1.519-1.266 2.991-1.778 4.36-1.826l1.734 1.88v-1.699c1.885.452 3.533 1.661 4.763 2.806-4.007-1.02-7.188.4-8.365 1.334l-.399.317.488.126c1.293.334 3.064 1.13 4.604 2.478l-.504 1.676h2.044a9.153 9.153 0 011.612 3.723l-.889 1.556 1.061.422c-.004.461-.037.942-.102 1.442-1.478-2.778-2.959-4.511-4.388-5.631-1.54-1.208-3.003-1.69-4.294-2.008l-.714-.176.471.582c1.813 2.239 1.944 5.191 1.316 7.9-.518 2.234-1.544 4.26-2.512 5.513.296-1.908.005-4.208-.531-6.31l1.651-1.238-2.15-.463c-.48-1.452-.976-2.53-1.465-3.285-.499-.772-1.012-1.24-1.519-1.39l-.196-.057-.089.189c-1.572 3.317-4.13 8.234-6.182 13.157-1.027 2.464-1.931 4.938-2.525 7.226-.561 2.161-.851 4.174-.695 5.862h-5.189c.06-4.907-.439-13.075-2.133-21.986-1.723-9.067-4.685-18.922-9.564-26.9l-.218-.358-.199.37c-.395.736-1.019 2.206-1.666 4.038l-3.435.445 2.7 1.779a50.922 50.922 0 00-1.237 4.774l-1.853.57 1.575.96c-.239 1.506-.361 2.97-.293 4.266-2.297-2.36-3.365-5.538-3.562-8.637-.21-3.303.572-6.479 1.87-8.433l.261-.393h-.461c-2.975 0-5.942 2.272-8.413 5.027-2.218 2.472-4.081 5.382-5.252 7.553-.117-2.074.046-4.752.768-7.397.807-2.958 2.308-5.855 4.873-7.83l2.074 1.804v-3.073c1.109-.526 2.368-.91 3.797-1.113l.276-.039-.075-.277c-.116-.433-.436-.775-.855-1.042-.42-.268-.965-.477-1.581-.635-1.182-.304-2.671-.431-4.162-.406l-.457-2.036-1.217 2.13c-1.153.11-2.251.314-3.143.608.434-.767 1.199-1.542 2.188-2.241 1.211-.857 2.73-1.58 4.306-2.02 1.578-.442 3.198-.596 4.616-.332 1.413.264 2.615.941 3.389 2.159l.444-.17c-.518-4.338 1.836-7.43 5.059-9.55 2.785-1.834 6.189-2.916 8.836-3.418z" fill="#FA8057"/><path d="M303.376 3.694c-1.908 1.302-4.422 3.475-6.253 6.214h-3.064l2.003 1.818c-.764 1.528-1.278 3.194-1.358 4.956l-.03.655.445-.467c1.955-2.052 3.966-3.387 5.964-4.167l2.12 2.058v-2.686c2.115-.434 4.197-.302 6.162.212l1.591 2.517.431-1.843c1.944.788 3.728 1.918 5.253 3.18-3.184-.77-6.91-.448-10.247.387-3.719.93-7.014 2.514-8.575 4.001l-.575.547.773-.113c4.635-.676 8.387 1.503 10.994 4.232a18.34 18.34 0 012.997 4.19c.535 1.04.859 1.96.978 2.628-2.019-1.377-4.807-2.655-7.901-3.556l.697-2.454-2.853 1.517a50.5 50.5 0 00-5.648-1.024l-.548-.064.325.462c1.173 1.666 3.24 5.797 5.586 12.754 2.343 6.95 4.961 16.706 7.241 29.612l.471.031c2.809-9.123 6.984-17.087 8.715-19.92l.268-.438-.498.054c-1.894.202-6.392 1.246-9.854 3.833.315-1.9 1.208-3.39 2.354-4.544l1.211 1.158v-2.196c1.884-1.38 4.074-2.068 5.498-2.276l.407-.06-.247-.34c-.416-.573-1.51-1.3-3.425-1.784l-1.019-2.157-.847 1.81c-1.562-.202-3.502-.255-5.873-.046 2.13-1.914 4.856-2.738 7.366-2.823 1.358-.047 2.645.123 3.73.45 1.089.326 1.957.804 2.495 1.36l.336.349.075-.486c.108-.695-.065-1.487-.386-2.291-.324-.81-.809-1.659-1.36-2.479-.923-1.374-2.044-2.686-2.936-3.622 1.708.224 3.966.913 5.646 2.35l-1.139.996 2.462.503c.745 1.153 1.164 2.62.995 4.48l-.053.592.448-.373c1.519-1.266 2.991-1.778 4.36-1.826l1.734 1.88v-1.699c1.885.452 3.533 1.661 4.763 2.806-4.007-1.02-7.188.4-8.365 1.334l-.399.317.488.126c1.293.334 3.064 1.13 4.604 2.478l-.504 1.676h2.044a9.153 9.153 0 011.612 3.723l-.889 1.556 1.061.422c-.004.461-.037.942-.102 1.442-1.478-2.778-2.959-4.511-4.388-5.631-1.54-1.208-3.003-1.69-4.294-2.008l-.714-.176.471.582c1.813 2.239 1.944 5.191 1.316 7.9-.518 2.234-1.544 4.26-2.512 5.513.296-1.908.005-4.208-.531-6.31l1.651-1.238-2.15-.463c-.48-1.452-.976-2.53-1.465-3.285-.499-.772-1.012-1.24-1.519-1.39l-.196-.057-.089.189c-1.572 3.317-4.13 8.234-6.182 13.157-1.027 2.464-1.931 4.938-2.525 7.226-.561 2.161-.851 4.174-.695 5.862h-5.189c.06-4.907-.439-13.075-2.133-21.986-1.723-9.067-4.685-18.922-9.564-26.9l-.218-.358-.199.37c-.395.736-1.019 2.206-1.666 4.038l-3.435.445 2.7 1.779a50.922 50.922 0 00-1.237 4.774l-1.853.57 1.575.96c-.239 1.506-.361 2.97-.293 4.266-2.297-2.36-3.365-5.538-3.562-8.637-.21-3.303.572-6.479 1.87-8.433l.261-.393h-.461c-2.975 0-5.942 2.272-8.413 5.027-2.218 2.472-4.081 5.382-5.252 7.553-.117-2.074.046-4.752.768-7.397.807-2.958 2.308-5.855 4.873-7.83l2.074 1.804v-3.073c1.109-.526 2.368-.91 3.797-1.113l.276-.039-.075-.277c-.116-.433-.436-.775-.855-1.042-.42-.268-.965-.477-1.581-.635-1.182-.304-2.671-.431-4.162-.406l-.457-2.036-1.217 2.13c-1.153.11-2.251.314-3.143.608.434-.767 1.199-1.542 2.188-2.241 1.211-.857 2.73-1.58 4.306-2.02 1.578-.442 3.198-.596 4.616-.332 1.413.264 2.615.941 3.389 2.159l.444-.17c-.518-4.338 1.836-7.43 5.059-9.55 2.785-1.834 6.189-2.916 8.836-3.418z" fill="#FA8057"/><path d="M304.507 0c-2.795.38-6.924 1.513-10.228 3.687-3.102 2.042-5.513 5.03-5.347 9.194-.84-.934-1.959-1.471-3.198-1.702-1.508-.282-3.204-.114-4.828.34-1.626.454-3.196 1.2-4.454 2.09-1.253.887-2.226 1.936-2.616 3.012l-.195.538.514-.217c.933-.393 2.26-.666 3.693-.795l.125-.011.064-.111.663-1.161.271 1.212.198-.005c1.53-.04 3.052.084 4.231.387.59.151 1.082.344 1.444.575.238.152.41.314.519.482a13.332 13.332 0 00-3.755 1.173l-.138.069v2.313l-1.567-1.363-.153.114c-2.776 2.064-4.367 5.132-5.21 8.218-.842 3.086-.941 6.21-.718 8.423l.084.828.373-.737c1.105-2.184 3.121-5.463 5.569-8.192 2.324-2.59 4.988-4.63 7.599-4.847-1.214 2.077-1.898 5.166-1.697 8.337.216 3.393 1.448 6.917 4.179 9.422l.474.435-.072-.651c-.157-1.43-.032-3.15.265-4.956l.028-.17-.901-.55 1.061-.326.03-.147c.343-1.718.812-3.46 1.31-5.054l.058-.185-1.878-1.237 2.391-.31.051-.144c.561-1.603 1.103-2.924 1.491-3.728 4.701 7.839 7.583 17.463 9.274 26.357 1.716 9.034 2.201 17.297 2.12 22.137l-.004.256h6.229l-.035-.284c-.207-1.648.065-3.692.652-5.95.586-2.256 1.48-4.706 2.502-7.158 2.004-4.808 4.483-9.593 6.073-12.928.307.158.67.502 1.064 1.11.471.729.967 1.806 1.453 3.301l.045.137.136.03 1.209.26-1.032.774.044.167c.65 2.48.942 5.182.372 7.15l-.262.903.661-.648c1.195-1.171 2.611-3.668 3.257-6.454.595-2.568.548-5.435-.987-7.754 1.075.312 2.233.791 3.442 1.739 1.467 1.15 3.024 3.003 4.59 6.12l.322.64.132-.709c.16-.86.231-1.67.225-2.437l-.001-.17-.836-.333.69-1.207-.016-.092a9.675 9.675 0 00-1.794-4.13l-.073-.097h-1.624l.402-1.338-.119-.108a12.409 12.409 0 00-4.414-2.545c1.444-.902 4.61-1.999 8.459-.67l.248-.417c-1.333-1.38-3.465-3.213-6.02-3.713l-.288-.056v1.058l-1.046-1.133-.106.002c-1.384.024-2.846.485-4.333 1.6.056-1.76-.403-3.19-1.17-4.338l-.056-.084-1.664-.34.799-.698-.21-.193c-2.033-1.875-4.95-2.61-6.823-2.732l-.664-.044.48.476c.923.913 2.283 2.44 3.362 4.045.54.803 1.005 1.62 1.31 2.383.223.558.355 1.075.378 1.53-.598-.474-1.397-.861-2.314-1.136-1.138-.342-2.476-.518-3.881-.47-2.807.096-5.907 1.086-8.207 3.466l-.483.5.679-.072c2.758-.293 4.946-.236 6.644-.001l.174.024.565-1.206.681 1.442.112.028c1.524.37 2.465.885 2.955 1.304-1.497.291-3.561 1.02-5.349 2.361l-.1.075v1.306l-.564-.539-.165-.157-.165.158c-1.413 1.356-2.51 3.192-2.747 5.61l-.058.588.449-.365c3.149-2.559 7.415-3.704 9.574-4.029-1.813 3.073-5.529 10.31-8.202 18.645-2.243-12.447-4.793-21.913-7.087-28.715-2.162-6.411-4.1-10.467-5.342-12.42 1.378.181 3.203.5 5.146.968l.087.02.079-.041 1.925-1.024-.518 1.82.239.068c3.38.958 6.387 2.37 8.423 3.858l.383.28v-.486c0-.785-.388-2.016-1.087-3.377a18.817 18.817 0 00-3.081-4.307c-2.522-2.64-6.129-4.818-10.585-4.468 1.649-1.252 4.507-2.548 7.738-3.357 3.681-.921 7.789-1.194 11.067-.084l.237-.426c-1.795-1.647-4.026-3.155-6.511-4.117l-.257-.1-.296 1.268-1.08-1.709-.091-.024c-2.113-.566-4.37-.708-6.668-.2l-.192.043V10.6l-1.521-1.476-.141.053c-1.957.74-3.915 1.985-5.814 3.864.166-1.497.652-2.925 1.339-4.255l.091-.176-1.322-1.199h2.03l.072-.11c2.14-3.251 5.293-5.713 7.207-6.833L304.507 0zm-1.131.694c-1.908 1.302-4.422 3.475-6.253 6.215h-3.064l2.003 1.817c-.764 1.528-1.278 3.194-1.358 4.956l-.03.655.445-.467c1.955-2.052 3.966-3.387 5.964-4.167l2.12 2.058V9.075c2.115-.434 4.197-.302 6.162.212l1.591 2.517.431-1.843c1.944.789 3.728 1.918 5.253 3.18-3.184-.77-6.91-.448-10.247.387-3.719.93-7.014 2.514-8.575 4.001l-.575.547.773-.113c4.635-.676 8.387 1.503 10.994 4.232a18.34 18.34 0 012.997 4.19c.535 1.04.859 1.96.978 2.628-2.019-1.377-4.807-2.655-7.901-3.557l.697-2.453-2.853 1.517a50.5 50.5 0 00-5.648-1.024l-.548-.064.325.462c1.173 1.666 3.24 5.797 5.586 12.754 2.343 6.95 4.961 16.706 7.241 29.612l.471.031c2.809-9.123 6.984-17.087 8.715-19.92l.268-.438-.498.054c-1.894.202-6.392 1.246-9.854 3.833.315-1.9 1.208-3.39 2.354-4.544l1.211 1.158v-2.196c1.884-1.38 4.074-2.068 5.498-2.276l.407-.06-.247-.34c-.416-.573-1.51-1.3-3.425-1.784l-1.019-2.157-.847 1.81c-1.562-.202-3.502-.255-5.873-.046 2.13-1.914 4.856-2.738 7.366-2.823 1.358-.047 2.645.123 3.73.45 1.089.326 1.957.804 2.495 1.36l.336.349.075-.486c.108-.695-.065-1.487-.386-2.291-.324-.81-.809-1.659-1.36-2.479-.923-1.374-2.044-2.686-2.936-3.622 1.708.224 3.966.913 5.646 2.35l-1.139.996 2.462.503c.745 1.153 1.164 2.62.995 4.48l-.053.592.448-.373c1.519-1.266 2.991-1.778 4.36-1.826l1.734 1.88v-1.699c1.885.452 3.533 1.661 4.763 2.806-4.007-1.02-7.188.4-8.365 1.334l-.399.317.488.126c1.293.334 3.064 1.13 4.604 2.478l-.504 1.676h2.044a9.153 9.153 0 011.612 3.723l-.889 1.556 1.061.422c-.004.461-.037.942-.102 1.442-1.478-2.778-2.959-4.511-4.388-5.631-1.54-1.208-3.003-1.69-4.294-2.008l-.714-.176.471.582c1.813 2.239 1.944 5.191 1.316 7.9-.518 2.234-1.544 4.26-2.512 5.513.296-1.908.005-4.208-.531-6.31l1.651-1.238-2.15-.463c-.48-1.452-.976-2.53-1.465-3.285-.499-.772-1.012-1.24-1.519-1.39l-.196-.057-.089.189c-1.572 3.317-4.13 8.234-6.182 13.157-1.027 2.464-1.931 4.938-2.525 7.226-.561 2.161-.851 4.174-.695 5.862h-5.189c.06-4.907-.439-13.075-2.133-21.986-1.723-9.067-4.685-18.922-9.564-26.9l-.218-.358-.199.37c-.395.736-1.019 2.206-1.666 4.038l-3.435.445 2.7 1.779a50.922 50.922 0 00-1.237 4.774l-1.853.57 1.575.96c-.239 1.506-.361 2.97-.293 4.266-2.297-2.36-3.365-5.538-3.562-8.637-.21-3.303.572-6.479 1.87-8.433l.261-.393h-.461c-2.975 0-5.942 2.272-8.413 5.027-2.218 2.472-4.081 5.382-5.252 7.553-.117-2.074.046-4.752.768-7.397.807-2.958 2.308-5.855 4.873-7.83l2.074 1.804v-3.073c1.109-.526 2.368-.91 3.797-1.113l.276-.039-.075-.277c-.116-.433-.436-.775-.855-1.042-.42-.268-.965-.477-1.581-.635-1.182-.304-2.671-.431-4.162-.406l-.457-2.036-1.217 2.13c-1.153.11-2.251.315-3.143.608.434-.767 1.199-1.542 2.188-2.241 1.211-.857 2.73-1.58 4.306-2.02 1.578-.442 3.198-.596 4.616-.332 1.413.264 2.615.941 3.389 2.159l.444-.17c-.518-4.338 1.836-7.43 5.059-9.55 2.785-1.834 6.189-2.916 8.836-3.418z" fill="#ED2EA5"/><path d="M54.508 8c3.816.52 9.451 2.073 13.962 5.051 4.234 2.796 7.526 6.89 7.299 12.594 1.146-1.28 2.674-2.015 4.365-2.332 2.059-.385 4.373-.156 6.591.466 2.22.623 4.362 1.645 6.08 2.865 1.71 1.213 3.039 2.65 3.57 4.124l.266.737-.7-.297c-1.274-.539-3.085-.913-5.042-1.089l-.17-.015-.087-.152-.905-1.59-.37 1.66-.271-.007c-2.089-.056-4.167.115-5.776.53-.805.207-1.477.471-1.97.787-.326.209-.56.43-.71.66 1.915.313 3.617.865 5.126 1.608l.19.094v3.169l2.138-1.867.21.157c3.788 2.826 5.96 7.029 7.11 11.257 1.15 4.227 1.286 8.508.981 11.538l-.114 1.134-.51-1.01c-1.508-2.992-4.26-7.483-7.602-11.22-3.172-3.55-6.81-6.344-10.374-6.642 1.657 2.846 2.592 7.078 2.317 11.421-.294 4.648-1.977 9.476-5.704 12.907l-.647.596.098-.892c.214-1.96.043-4.314-.362-6.788l-.038-.234 1.23-.752-1.449-.448-.04-.201c-.468-2.353-1.109-4.74-1.789-6.923l-.079-.254 2.564-1.695-3.264-.424-.069-.198c-.766-2.195-1.507-4.004-2.036-5.106-6.418 10.738-10.352 23.922-12.66 36.106-2.343 12.375-3.004 23.694-2.894 30.325l.006.35h-8.504l.049-.389c.281-2.258-.09-5.057-.89-8.152-.8-3.09-2.02-6.445-3.416-9.804-2.736-6.587-6.12-13.141-8.29-17.71-.42.217-.915.688-1.452 1.52-.644.999-1.321 2.474-1.985 4.523l-.06.187-.186.04-1.651.358 1.41 1.06-.06.229c-.889 3.398-1.287 7.099-.508 9.794l.357 1.237-.903-.888c-1.63-1.604-3.563-5.024-4.445-8.84-.813-3.518-.748-7.446 1.347-10.623-1.467.428-3.048 1.084-4.699 2.383-2.002 1.575-4.128 4.113-6.265 8.383l-.44.878-.18-.972a17.602 17.602 0 01-.307-3.338l.002-.235 1.14-.454-.942-1.654.023-.127a13.263 13.263 0 012.449-5.656l.099-.133h2.217l-.55-1.833.164-.148a16.928 16.928 0 016.024-3.486c-1.97-1.237-6.292-2.739-11.546-.92l-.34-.57c1.821-1.89 4.73-4.402 8.22-5.086l.392-.077v1.45l1.428-1.553.145.003c1.888.033 3.884.665 5.915 2.193-.078-2.412.55-4.372 1.596-5.943l.077-.115 2.272-.466-1.09-.956.285-.264c2.776-2.57 6.758-3.576 9.315-3.744l.906-.06-.656.652c-1.259 1.251-3.116 3.342-4.59 5.542-.736 1.1-1.37 2.218-1.787 3.265-.305.764-.485 1.471-.515 2.096.816-.65 1.906-1.18 3.158-1.558 1.553-.468 3.38-.708 5.298-.643 3.832.132 8.063 1.487 11.203 4.748l.66.685-.928-.099c-3.765-.4-6.752-.324-9.07-.001l-.237.033-.77-1.653-.93 1.977-.154.037c-2.08.507-3.364 1.212-4.034 1.787 2.044.399 4.861 1.396 7.302 3.234l.137.103v1.788l.77-.738.225-.215.225.216c1.93 1.858 3.426 4.373 3.75 7.685l.08.806-.614-.5c-4.298-3.505-10.122-5.074-13.07-5.52 2.476 4.21 7.548 14.123 11.197 25.542 3.062-17.051 6.544-30.018 9.675-39.336 2.95-8.782 5.596-14.339 7.292-17.014-1.882.25-4.372.686-7.024 1.327l-.119.028-.108-.057-2.627-1.402.706 2.492-.326.093c-4.613 1.313-8.72 3.248-11.498 5.285l-.523.383v-.664c0-1.077.53-2.763 1.484-4.626a25.773 25.773 0 014.206-5.9c3.442-3.617 8.367-6.6 14.45-6.12-2.252-1.716-6.154-3.492-10.563-4.6-5.026-1.262-10.633-1.636-15.108-.115l-.323-.584c2.45-2.256 5.495-4.322 8.887-5.64l.35-.136.405 1.737 1.475-2.341.123-.033c2.886-.776 5.967-.97 9.103-.274l.262.058v2.65l2.077-2.023.191.073c2.672 1.012 5.345 2.718 7.937 5.292-.226-2.05-.89-4.007-1.827-5.828l-.124-.241 1.804-1.643h-2.771l-.099-.15c-2.921-4.455-7.225-7.827-9.837-9.361L54.508 8zm1.543.95c2.605 1.784 6.037 4.761 8.536 8.514h4.184l-2.736 2.49c1.043 2.092 1.746 4.374 1.855 6.788l.04.898-.608-.64c-2.667-2.811-5.413-4.64-8.14-5.708l-2.894 2.819v-3.68c-2.888-.594-5.73-.413-8.412.29l-2.171 3.45-.589-2.526c-2.654 1.08-5.09 2.628-7.171 4.357 4.346-1.055 9.433-.614 13.988.53 5.077 1.274 9.574 3.444 11.706 5.48l.784.75-1.054-.155c-6.328-.927-11.45 2.059-15.008 5.796a25.08 25.08 0 00-4.091 5.74c-.73 1.425-1.174 2.686-1.336 3.601 2.757-1.886 6.562-3.638 10.787-4.872l-.952-3.361 3.894 2.078c2.99-.717 5.769-1.177 7.71-1.403l.748-.087-.444.632c-1.6 2.282-4.422 7.941-7.624 17.471-3.2 9.521-6.773 22.886-9.886 40.565l-.642.043c-3.835-12.498-9.534-23.407-11.897-27.288l-.365-.6.679.073c2.585.278 8.725 1.708 13.452 5.252-.43-2.603-1.65-4.645-3.214-6.225l-1.654 1.586V68.6c-2.572-1.891-5.56-2.833-7.504-3.118l-.556-.08.337-.467c.568-.786 2.06-1.782 4.676-2.444l1.391-2.956 1.156 2.48c2.132-.276 4.78-.349 8.016-.063-2.906-2.622-6.628-3.75-10.054-3.868-1.853-.063-3.61.17-5.092.616-1.486.448-2.672 1.103-3.406 1.865l-.459.477-.102-.665c-.147-.952.088-2.037.527-3.14.442-1.108 1.104-2.27 1.857-3.394 1.26-1.882 2.79-3.68 4.008-4.962-2.332.306-5.415 1.251-7.708 3.22l1.555 1.363-3.36.689c-1.017 1.58-1.59 3.589-1.36 6.137l.073.811-.61-.51c-2.075-1.734-4.084-2.436-5.953-2.501l-2.368 2.575v-2.328c-2.573.62-4.822 2.276-6.5 3.844 5.469-1.397 9.811.547 11.418 1.827l.545.434-.666.173c-1.766.458-4.184 1.548-6.286 3.395l.689 2.295H15a12.545 12.545 0 00-2.201 5.101l1.214 2.132-1.448.577c.005.632.05 1.29.138 1.975 2.018-3.805 4.04-6.18 5.99-7.714 2.103-1.654 4.1-2.314 5.862-2.75l.974-.24-.643.796c-2.474 3.067-2.653 7.112-1.796 10.822.707 3.06 2.108 5.835 3.429 7.553-.404-2.614-.006-5.765.726-8.645l-2.255-1.695 2.935-.635c.655-1.988 1.333-3.465 2-4.5.682-1.057 1.382-1.698 2.074-1.903l.267-.08.122.26c2.146 4.544 5.638 11.279 8.439 18.023 1.401 3.375 2.636 6.764 3.447 9.898.766 2.961 1.161 5.719.948 8.032h7.084c-.082-6.723.6-17.912 2.911-30.12 2.352-12.42 6.396-25.92 13.056-36.848l.298-.49.272.507c.539 1.008 1.39 3.02 2.273 5.531l4.69.61-3.687 2.436a69.657 69.657 0 011.69 6.54l2.53.78-2.151 1.315c.326 2.064.493 4.068.4 5.845 3.135-3.233 4.594-7.586 4.863-11.832.286-4.524-.781-8.875-2.553-11.551l-.357-.54h.63c4.061 0 8.11 3.114 11.484 6.888 3.027 3.386 5.57 7.372 7.17 10.346.16-2.841-.063-6.51-1.049-10.133-1.102-4.052-3.15-8.02-6.652-10.726l-2.832 2.47v-4.208c-1.513-.721-3.232-1.248-5.182-1.525l-.377-.053.102-.38c.159-.593.595-1.062 1.167-1.428.574-.367 1.317-.653 2.159-.87 1.613-.415 3.645-.59 5.681-.555l.624-2.79 1.66 2.919c1.575.151 3.075.43 4.291.832-.592-1.05-1.637-2.113-2.986-3.07-1.653-1.174-3.727-2.164-5.879-2.768-2.153-.604-4.365-.815-6.3-.453-1.93.361-3.57 1.289-4.627 2.957l-.606-.232c.707-5.944-2.506-10.179-6.905-13.084-3.803-2.511-8.449-3.994-12.063-4.682z" fill="#FAD009"/><path d="M56.051 8.95c2.605 1.784 6.037 4.761 8.536 8.514h4.184l-2.736 2.49c1.043 2.092 1.746 4.374 1.855 6.788l.04.898-.608-.64c-2.667-2.811-5.413-4.64-8.14-5.708l-2.894 2.819v-3.68c-2.888-.594-5.73-.413-8.412.29l-2.171 3.45-.589-2.526c-2.654 1.08-5.09 2.628-7.171 4.357 4.346-1.055 9.433-.614 13.988.53 5.077 1.274 9.574 3.444 11.706 5.48l.784.75-1.054-.155c-6.328-.927-11.45 2.059-15.008 5.796a25.08 25.08 0 00-4.091 5.74c-.73 1.425-1.174 2.686-1.336 3.601 2.757-1.886 6.562-3.638 10.787-4.872l-.952-3.361 3.894 2.078c2.99-.717 5.769-1.177 7.71-1.403l.748-.087-.444.632c-1.6 2.282-4.422 7.941-7.624 17.471-3.2 9.521-6.773 22.886-9.886 40.565l-.642.043c-3.835-12.498-9.534-23.407-11.897-27.288l-.365-.6.679.073c2.585.278 8.725 1.708 13.452 5.252-.43-2.603-1.65-4.645-3.214-6.225l-1.654 1.586V68.6c-2.572-1.891-5.56-2.833-7.504-3.118l-.556-.08.337-.467c.568-.786 2.06-1.782 4.676-2.444l1.391-2.956 1.156 2.48c2.132-.276 4.78-.349 8.016-.063-2.906-2.622-6.628-3.75-10.054-3.868-1.853-.063-3.61.17-5.092.616-1.486.448-2.672 1.103-3.406 1.865l-.459.477-.102-.665c-.147-.952.088-2.037.527-3.14.442-1.108 1.104-2.27 1.857-3.394 1.26-1.882 2.79-3.68 4.008-4.962-2.332.306-5.415 1.251-7.708 3.22l1.555 1.363-3.36.689c-1.017 1.58-1.59 3.589-1.36 6.137l.073.811-.61-.51c-2.075-1.734-4.084-2.436-5.953-2.501l-2.368 2.575v-2.328c-2.573.62-4.822 2.276-6.5 3.844 5.469-1.397 9.811.547 11.418 1.827l.545.434-.666.173c-1.766.458-4.184 1.548-6.286 3.395l.689 2.295H15a12.545 12.545 0 00-2.201 5.101l1.214 2.132-1.448.577c.005.632.05 1.29.138 1.975 2.018-3.805 4.04-6.18 5.99-7.714 2.103-1.654 4.1-2.314 5.862-2.75l.974-.24-.643.796c-2.474 3.067-2.653 7.112-1.796 10.822.707 3.06 2.108 5.835 3.429 7.553-.404-2.614-.006-5.765.726-8.645l-2.255-1.695 2.935-.635c.655-1.988 1.333-3.465 2-4.5.682-1.057 1.382-1.698 2.074-1.903l.267-.08.122.26c2.146 4.544 5.638 11.279 8.439 18.023 1.401 3.375 2.636 6.764 3.447 9.898.766 2.961 1.161 5.719.948 8.032h7.084c-.082-6.723.6-17.912 2.911-30.12 2.352-12.42 6.396-25.92 13.056-36.848l.298-.49.272.507c.539 1.008 1.39 3.02 2.273 5.531l4.69.61-3.687 2.436a69.657 69.657 0 011.69 6.54l2.53.78-2.151 1.315c.326 2.064.493 4.068.4 5.845 3.135-3.233 4.594-7.586 4.863-11.832.286-4.524-.781-8.875-2.553-11.551l-.357-.54h.63c4.061 0 8.11 3.114 11.484 6.888 3.027 3.386 5.57 7.372 7.17 10.346.16-2.841-.063-6.51-1.049-10.133-1.102-4.052-3.15-8.02-6.652-10.726l-2.832 2.47v-4.208c-1.513-.721-3.232-1.248-5.182-1.525l-.377-.053.102-.38c.159-.593.595-1.062 1.167-1.428.574-.367 1.317-.653 2.159-.87 1.613-.415 3.645-.59 5.681-.555l.624-2.79 1.66 2.919c1.575.151 3.075.43 4.291.832-.592-1.05-1.637-2.113-2.986-3.07-1.653-1.174-3.727-2.164-5.879-2.768-2.153-.604-4.365-.815-6.3-.453-1.93.361-3.57 1.289-4.627 2.957l-.606-.232c.707-5.944-2.506-10.179-6.905-13.084-3.803-2.511-8.449-3.994-12.063-4.682z" fill="#FAD009"/><path d="M54.508 4c3.816.52 9.451 2.073 13.961 5.051 4.235 2.796 7.527 6.89 7.3 12.594 1.146-1.28 2.674-2.015 4.365-2.332 2.059-.385 4.373-.156 6.591.466 2.22.623 4.362 1.645 6.08 2.865 1.71 1.213 3.039 2.65 3.57 4.124l.266.737-.7-.297c-1.274-.539-3.085-.913-5.042-1.089l-.17-.015-.087-.152-.905-1.59-.37 1.66-.271-.007c-2.089-.056-4.167.115-5.776.53-.805.207-1.477.471-1.97.787-.326.209-.56.43-.71.66 1.915.313 3.617.865 5.126 1.608l.19.094v3.169l2.138-1.867.21.157c3.788 2.826 5.96 7.029 7.11 11.257 1.15 4.227 1.286 8.508.981 11.538l-.114 1.134-.51-1.01c-1.508-2.992-4.26-7.483-7.602-11.22-3.172-3.55-6.81-6.344-10.374-6.642 1.657 2.846 2.592 7.078 2.317 11.421-.294 4.648-1.977 9.476-5.704 12.907l-.647.596.098-.892c.214-1.96.043-4.314-.362-6.788l-.038-.234 1.23-.752-1.449-.448-.04-.201c-.468-2.353-1.11-4.74-1.789-6.923l-.079-.254 2.564-1.695-3.264-.424-.069-.198c-.766-2.195-1.507-4.004-2.036-5.106-6.418 10.738-10.352 23.922-12.66 36.106-2.343 12.375-3.004 23.694-2.894 30.325l.006.35h-8.504l.049-.389c.281-2.258-.09-5.057-.89-8.152-.8-3.09-2.02-6.445-3.416-9.804-2.736-6.587-6.12-13.141-8.29-17.71-.42.217-.915.688-1.452 1.52-.644.999-1.321 2.474-1.985 4.523l-.06.188-.186.04-1.651.357 1.41 1.06-.06.23c-.889 3.397-1.287 7.098-.508 9.793l.357 1.237-.903-.888c-1.63-1.604-3.563-5.024-4.445-8.84-.813-3.518-.748-7.446 1.347-10.623-1.467.428-3.048 1.084-4.699 2.383-2.002 1.575-4.128 4.113-6.265 8.383l-.44.878-.18-.972a17.602 17.602 0 01-.307-3.338l.002-.235 1.14-.454-.942-1.654.023-.127a13.263 13.263 0 012.449-5.656l.099-.133h2.217l-.55-1.833.164-.148a16.928 16.928 0 016.024-3.486c-1.97-1.237-6.292-2.739-11.546-.92l-.34-.57c1.821-1.89 4.73-4.402 8.22-5.086l.392-.077v1.45l1.428-1.553.145.003c1.888.033 3.884.665 5.915 2.193-.078-2.412.55-4.372 1.596-5.943l.077-.115 2.272-.466-1.09-.956.285-.264c2.776-2.57 6.758-3.576 9.315-3.744l.906-.06-.656.652c-1.259 1.251-3.116 3.342-4.59 5.542-.736 1.1-1.37 2.218-1.787 3.265-.305.764-.485 1.471-.515 2.096.816-.65 1.906-1.18 3.158-1.558 1.553-.468 3.38-.708 5.298-.643 3.832.132 8.063 1.487 11.203 4.748l.66.685-.928-.099c-3.765-.4-6.752-.324-9.07-.001l-.237.033-.77-1.653-.93 1.977-.154.037c-2.08.507-3.364 1.212-4.034 1.787 2.044.399 4.861 1.396 7.302 3.234l.137.103v1.788l.77-.738.225-.215.225.216c1.93 1.858 3.426 4.373 3.75 7.685l.08.806-.614-.5c-4.298-3.505-10.122-5.074-13.07-5.519 2.476 4.21 7.548 14.123 11.197 25.54 3.062-17.05 6.544-30.017 9.675-39.335 2.95-8.782 5.596-14.339 7.292-17.014-1.882.25-4.372.686-7.024 1.327l-.119.028-.108-.057-2.627-1.402.706 2.492-.326.093c-4.613 1.313-8.72 3.248-11.498 5.285l-.523.383v-.664c0-1.077.53-2.763 1.484-4.626a25.773 25.773 0 014.206-5.9c3.442-3.617 8.367-6.6 14.45-6.12-2.252-1.716-6.154-3.492-10.563-4.6-5.026-1.262-10.633-1.636-15.108-.115l-.323-.584c2.45-2.256 5.495-4.322 8.887-5.64l.35-.136.405 1.737 1.475-2.341.123-.033c2.886-.776 5.967-.97 9.103-.274l.262.058v2.65l2.077-2.023.191.073c2.672 1.012 5.345 2.718 7.937 5.292-.226-2.05-.89-4.007-1.827-5.828l-.124-.241 1.804-1.643h-2.771l-.099-.15c-2.921-4.455-7.225-7.827-9.837-9.361L54.508 4zm1.543.95c2.605 1.784 6.037 4.761 8.536 8.514h4.184l-2.736 2.49c1.043 2.092 1.746 4.374 1.855 6.788l.04.898-.608-.64c-2.667-2.811-5.413-4.64-8.14-5.708l-2.894 2.819v-3.68c-2.888-.594-5.73-.413-8.412.29l-2.171 3.45-.589-2.526c-2.654 1.08-5.09 2.628-7.171 4.357 4.346-1.055 9.433-.614 13.988.53 5.077 1.274 9.574 3.444 11.706 5.48l.784.75-1.054-.155c-6.328-.927-11.45 2.059-15.008 5.796a25.08 25.08 0 00-4.091 5.74c-.73 1.425-1.174 2.686-1.336 3.601 2.757-1.886 6.562-3.638 10.787-4.872l-.952-3.361 3.894 2.078c2.99-.717 5.769-1.177 7.71-1.403l.748-.087-.444.632c-1.6 2.282-4.422 7.941-7.624 17.471-3.2 9.521-6.773 22.886-9.886 40.565l-.642.043c-3.835-12.498-9.534-23.407-11.897-27.288l-.365-.6.679.073c2.585.278 8.725 1.708 13.452 5.252-.43-2.603-1.65-4.645-3.214-6.225l-1.654 1.586V64.6c-2.572-1.891-5.56-2.833-7.504-3.118l-.556-.08.337-.467c.568-.786 2.06-1.782 4.676-2.444l1.391-2.956 1.156 2.48c2.132-.276 4.78-.349 8.016-.063-2.906-2.622-6.628-3.75-10.054-3.868-1.853-.063-3.61.17-5.092.616-1.486.448-2.672 1.103-3.406 1.865l-.459.477-.102-.665c-.147-.952.088-2.037.527-3.14.442-1.108 1.104-2.27 1.857-3.394 1.26-1.882 2.79-3.68 4.008-4.962-2.332.306-5.415 1.251-7.708 3.22l1.555 1.363-3.36.689c-1.017 1.58-1.59 3.589-1.36 6.137l.073.811-.61-.51c-2.075-1.734-4.084-2.436-5.953-2.501l-2.368 2.575v-2.328c-2.573.62-4.822 2.276-6.5 3.844 5.469-1.397 9.811.547 11.418 1.827l.545.434-.666.173c-1.766.458-4.184 1.548-6.286 3.395l.689 2.295H15a12.545 12.545 0 00-2.201 5.101l1.214 2.132-1.448.577c.005.632.05 1.29.138 1.975 2.018-3.805 4.04-6.18 5.99-7.714 2.103-1.654 4.1-2.314 5.862-2.75l.974-.24-.643.796c-2.474 3.067-2.653 7.112-1.796 10.822.707 3.06 2.108 5.835 3.429 7.553-.404-2.614-.006-5.765.726-8.645l-2.255-1.695 2.935-.635c.655-1.988 1.333-3.465 2-4.5.682-1.057 1.382-1.698 2.074-1.903l.267-.079.122.259c2.146 4.544 5.638 11.279 8.439 18.023 1.401 3.375 2.636 6.764 3.447 9.898.766 2.961 1.161 5.719.948 8.032h7.084c-.082-6.723.6-17.912 2.911-30.12 2.352-12.42 6.396-25.92 13.056-36.848l.298-.49.272.507c.539 1.008 1.39 3.02 2.273 5.531l4.69.61-3.687 2.436a69.657 69.657 0 011.69 6.54l2.53.78-2.151 1.315c.326 2.064.493 4.068.4 5.845 3.135-3.233 4.594-7.586 4.863-11.832.286-4.524-.781-8.875-2.553-11.551l-.357-.54h.63c4.061 0 8.11 3.114 11.484 6.888 3.027 3.386 5.57 7.372 7.17 10.346.16-2.841-.063-6.51-1.049-10.133-1.102-4.052-3.15-8.02-6.652-10.726l-2.832 2.47v-4.208c-1.513-.721-3.232-1.248-5.182-1.525l-.377-.053.102-.38c.159-.593.595-1.062 1.167-1.428.574-.367 1.317-.653 2.159-.87 1.613-.415 3.645-.59 5.681-.555l.624-2.79 1.66 2.919c1.575.151 3.075.43 4.291.832-.592-1.05-1.637-2.113-2.986-3.07-1.653-1.174-3.727-2.164-5.879-2.768-2.153-.604-4.365-.815-6.3-.453-1.93.361-3.57 1.289-4.627 2.957l-.606-.232c.707-5.944-2.506-10.179-6.905-13.084C64.31 7.121 59.665 5.638 56.05 4.95z" fill="#ED2EA5"/><path d="M347.775 8c-3.816.52-9.452 2.073-13.962 5.051-4.234 2.796-7.526 6.89-7.299 12.594-1.146-1.28-2.674-2.015-4.365-2.332-2.059-.385-4.374-.156-6.591.466-2.22.623-4.362 1.645-6.081 2.865-1.709 1.213-3.038 2.65-3.57 4.124l-.266.737.702-.297c1.273-.539 3.084-.913 5.041-1.089l.17-.015.087-.152.905-1.59.371 1.66.27-.007c2.089-.056 4.167.115 5.776.53.805.207 1.477.471 1.97.787.326.209.56.43.71.66-1.915.313-3.617.865-5.126 1.608l-.189.094v3.169l-2.139-1.867-.209.157c-3.789 2.826-5.961 7.029-7.111 11.257-1.15 4.227-1.286 8.508-.981 11.538l.114 1.134.509-1.01c1.509-2.992 4.261-7.483 7.603-11.22 3.172-3.55 6.809-6.344 10.374-6.642-1.657 2.846-2.592 7.078-2.317 11.421.294 4.648 1.977 9.476 5.704 12.907l.647.596-.098-.892c-.214-1.96-.043-4.314.362-6.788l.038-.234-1.23-.752 1.449-.448.04-.201c.468-2.353 1.109-4.74 1.789-6.923l.079-.254-2.564-1.695 3.264-.424.069-.198c.766-2.195 1.507-4.004 2.036-5.106 6.418 10.738 10.352 23.922 12.659 36.106 2.344 12.375 3.005 23.694 2.895 30.325l-.006.35h8.504l-.049-.389c-.281-2.258.09-5.057.891-8.152.799-3.09 2.02-6.445 3.415-9.804 2.736-6.587 6.12-13.141 8.29-17.71.42.217.915.688 1.452 1.52.644.999 1.321 2.474 1.985 4.523l.06.187.186.04 1.651.358-1.41 1.06.06.229c.889 3.398 1.287 7.099.508 9.794l-.357 1.237.903-.888c1.63-1.604 3.563-5.024 4.445-8.84.813-3.518.748-7.446-1.347-10.623 1.467.428 3.048 1.084 4.698 2.383 2.003 1.575 4.129 4.113 6.266 8.383l.44.878.18-.972c.218-1.177.315-2.29.307-3.338l-.002-.235-1.14-.454.942-1.654-.023-.127a13.253 13.253 0 00-2.449-5.656l-.099-.133h-2.217l.55-1.833-.164-.148a16.926 16.926 0 00-6.024-3.486c1.97-1.237 6.291-2.739 11.546-.92l.339-.57c-1.82-1.89-4.73-4.402-8.218-5.086l-.393-.077v1.45l-1.428-1.553-.145.003c-1.888.033-3.884.665-5.915 2.193.078-2.412-.549-4.372-1.596-5.943l-.077-.115-2.272-.466 1.09-.956-.285-.264c-2.776-2.57-6.758-3.576-9.315-3.744l-.906-.06.656.652c1.259 1.251 3.116 3.342 4.589 5.542.737 1.1 1.371 2.218 1.788 3.265.304.764.485 1.471.515 2.096-.815-.65-1.906-1.18-3.158-1.558-1.553-.468-3.38-.708-5.298-.643-3.832.132-8.063 1.487-11.203 4.748l-.66.685.928-.099c3.765-.4 6.752-.324 9.069-.001l.238.033.771-1.653.929 1.977.153.037c2.081.507 3.365 1.212 4.035 1.787-2.044.399-4.861 1.396-7.302 3.234l-.137.103v1.788l-.77-.738-.225-.215-.225.216c-1.93 1.858-3.426 4.373-3.751 7.685l-.078.806.613-.5c4.299-3.505 10.122-5.074 13.069-5.52-2.475 4.21-7.547 14.123-11.196 25.542-3.062-17.051-6.544-30.018-9.675-39.336-2.951-8.782-5.596-14.339-7.293-17.014 1.883.25 4.373.686 7.025 1.327l.119.028.108-.057 2.627-1.402-.706 2.492.326.093c4.613 1.313 8.719 3.248 11.498 5.285l.523.383v-.664c0-1.077-.53-2.763-1.484-4.626a25.781 25.781 0 00-4.206-5.9c-3.442-3.617-8.367-6.6-14.449-6.12 2.251-1.716 6.152-3.492 10.562-4.6 5.026-1.262 10.633-1.636 15.108-.115l.323-.584c-2.45-2.256-5.495-4.322-8.887-5.64l-.35-.136-.405 1.737-1.475-2.341-.124-.033c-2.885-.776-5.966-.97-9.102-.274l-.262.058v2.65l-2.077-2.023-.191.073c-2.672 1.012-5.345 2.718-7.937 5.292.226-2.05.89-4.007 1.827-5.828l.124-.241-1.804-1.643h2.771l.099-.15c2.921-4.455 7.225-7.827 9.837-9.361L347.775 8zm-1.543.95c-2.605 1.784-6.037 4.761-8.536 8.514h-4.184l2.736 2.49c-1.043 2.092-1.746 4.374-1.855 6.788l-.04.898.608-.64c2.667-2.811 5.413-4.64 8.14-5.708l2.894 2.819v-3.68c2.888-.594 5.729-.413 8.412.29l2.171 3.45.589-2.526c2.654 1.08 5.089 2.628 7.171 4.357-4.346-1.055-9.433-.614-13.988.53-5.077 1.274-9.574 3.444-11.706 5.48l-.784.75 1.054-.155c6.328-.927 11.45 2.059 15.008 5.796a25.079 25.079 0 014.091 5.74c.731 1.425 1.174 2.686 1.336 3.601-2.757-1.886-6.562-3.638-10.787-4.872l.952-3.361-3.894 2.078c-2.991-.717-5.769-1.177-7.709-1.403l-.749-.087.444.632c1.6 2.282 4.422 7.941 7.624 17.471 3.2 9.521 6.773 22.886 9.886 40.565l.642.043c3.835-12.498 9.534-23.407 11.897-27.288l.365-.6-.679.073c-2.585.278-8.725 1.708-13.452 5.252.43-2.603 1.649-4.645 3.214-6.225l1.654 1.586V68.6c2.572-1.891 5.56-2.833 7.504-3.118l.556-.08-.337-.467c-.568-.786-2.061-1.782-4.676-2.444l-1.391-2.956-1.156 2.48c-2.132-.276-4.78-.349-8.016-.063 2.906-2.622 6.628-3.75 10.054-3.868 1.853-.063 3.61.17 5.092.616 1.486.448 2.672 1.103 3.406 1.865l.459.477.102-.665c.147-.952-.088-2.037-.527-3.14-.442-1.108-1.104-2.27-1.857-3.394-1.26-1.882-2.79-3.68-4.008-4.962 2.332.306 5.415 1.251 7.708 3.22l-1.555 1.363 3.36.689c1.017 1.58 1.59 3.589 1.36 6.137l-.074.811.612-.51c2.074-1.734 4.083-2.436 5.952-2.501l2.368 2.575v-2.328c2.573.62 4.822 2.276 6.5 3.844-5.469-1.397-9.811.547-11.418 1.827l-.545.434.666.173c1.766.458 4.184 1.548 6.286 3.395l-.689 2.295h2.79a12.537 12.537 0 012.201 5.101l-1.214 2.132 1.448.577c-.005.632-.05 1.29-.138 1.975-2.018-3.805-4.04-6.18-5.99-7.714-2.103-1.654-4.1-2.314-5.862-2.75l-.974-.24.643.796c2.474 3.067 2.653 7.112 1.796 10.822-.707 3.06-2.108 5.835-3.429 7.553.404-2.614.006-5.765-.726-8.645l2.255-1.695-2.935-.635c-.655-1.988-1.333-3.465-2-4.5-.682-1.057-1.382-1.698-2.074-1.903l-.267-.08-.122.26c-2.146 4.544-5.638 11.279-8.439 18.023-1.401 3.375-2.636 6.764-3.447 9.898-.766 2.961-1.161 5.719-.949 8.032h-7.083c.082-6.723-.599-17.912-2.911-30.12-2.352-12.42-6.396-25.92-13.056-36.848l-.298-.49-.272.507c-.539 1.008-1.39 3.02-2.274 5.531l-4.688.61 3.686 2.436a69.411 69.411 0 00-1.689 6.54l-2.53.78 2.15 1.315c-.326 2.064-.493 4.068-.4 5.845-3.135-3.233-4.594-7.586-4.863-11.832-.286-4.524.781-8.875 2.553-11.551l.357-.54h-.63c-4.061 0-8.11 3.114-11.484 6.888-3.027 3.386-5.57 7.372-7.169 10.346-.161-2.841.062-6.51 1.048-10.133 1.102-4.052 3.15-8.02 6.652-10.726l2.832 2.47v-4.208c1.513-.721 3.232-1.248 5.182-1.525l.377-.053-.102-.38c-.159-.593-.595-1.062-1.167-1.428-.574-.367-1.317-.653-2.159-.87-1.613-.415-3.645-.59-5.681-.555l-.624-2.79-1.661 2.919c-1.574.151-3.074.43-4.29.832.592-1.05 1.637-2.113 2.986-3.07 1.653-1.174 3.727-2.164 5.878-2.768 2.154-.604 4.366-.815 6.301-.453 1.93.361 3.57 1.289 4.627 2.957l.606-.232c-.707-5.944 2.506-10.179 6.905-13.084 3.803-2.511 8.449-3.994 12.063-4.682z" fill="#FAD009"/><path d="M346.232 8.95c-2.605 1.784-6.037 4.761-8.536 8.514h-4.184l2.736 2.49c-1.043 2.092-1.746 4.374-1.855 6.788l-.04.898.608-.64c2.667-2.811 5.413-4.64 8.14-5.708l2.894 2.819v-3.68c2.888-.594 5.729-.413 8.412.29l2.171 3.45.589-2.526c2.654 1.08 5.089 2.628 7.171 4.357-4.346-1.055-9.433-.614-13.988.53-5.077 1.274-9.574 3.444-11.706 5.48l-.784.75 1.054-.155c6.328-.927 11.45 2.059 15.008 5.796a25.079 25.079 0 014.091 5.74c.731 1.425 1.174 2.686 1.336 3.601-2.757-1.886-6.562-3.638-10.787-4.872l.952-3.361-3.894 2.078c-2.991-.717-5.769-1.177-7.709-1.403l-.749-.087.444.632c1.6 2.282 4.422 7.941 7.624 17.471 3.2 9.521 6.773 22.886 9.886 40.565l.642.043c3.835-12.498 9.534-23.407 11.897-27.288l.365-.6-.679.073c-2.585.278-8.725 1.708-13.452 5.252.43-2.603 1.649-4.645 3.214-6.225l1.654 1.586V68.6c2.572-1.891 5.56-2.833 7.504-3.118l.556-.08-.337-.467c-.568-.786-2.061-1.782-4.676-2.444l-1.391-2.956-1.156 2.48c-2.132-.276-4.78-.349-8.016-.063 2.906-2.622 6.628-3.75 10.054-3.868 1.853-.063 3.61.17 5.092.616 1.486.448 2.672 1.103 3.406 1.865l.459.477.102-.665c.147-.952-.088-2.037-.527-3.14-.442-1.108-1.104-2.27-1.857-3.394-1.26-1.882-2.79-3.68-4.008-4.962 2.332.306 5.415 1.251 7.708 3.22l-1.555 1.363 3.36.689c1.017 1.58 1.59 3.589 1.36 6.137l-.074.811.612-.51c2.074-1.734 4.083-2.436 5.952-2.501l2.368 2.575v-2.328c2.573.62 4.822 2.276 6.5 3.844-5.469-1.397-9.811.547-11.418 1.827l-.545.434.666.173c1.766.458 4.184 1.548 6.286 3.395l-.689 2.295h2.79a12.537 12.537 0 012.201 5.101l-1.214 2.132 1.448.577c-.005.632-.05 1.29-.138 1.975-2.018-3.805-4.04-6.18-5.99-7.714-2.103-1.654-4.1-2.314-5.862-2.75l-.974-.24.643.796c2.474 3.067 2.653 7.112 1.796 10.822-.707 3.06-2.108 5.835-3.429 7.553.404-2.614.006-5.765-.726-8.645l2.255-1.695-2.935-.635c-.655-1.988-1.333-3.465-2-4.5-.682-1.057-1.382-1.698-2.074-1.903l-.267-.08-.122.26c-2.146 4.544-5.638 11.279-8.439 18.023-1.401 3.375-2.636 6.764-3.447 9.898-.766 2.961-1.161 5.719-.949 8.032h-7.083c.082-6.723-.599-17.912-2.911-30.12-2.352-12.42-6.396-25.92-13.056-36.848l-.298-.49-.272.507c-.539 1.008-1.39 3.02-2.274 5.531l-4.688.61 3.686 2.436a69.411 69.411 0 00-1.689 6.54l-2.53.78 2.15 1.315c-.326 2.064-.493 4.068-.4 5.845-3.135-3.233-4.594-7.586-4.863-11.832-.286-4.524.781-8.875 2.553-11.551l.357-.54h-.63c-4.061 0-8.11 3.114-11.484 6.888-3.027 3.386-5.57 7.372-7.169 10.346-.161-2.841.062-6.51 1.048-10.133 1.102-4.052 3.15-8.02 6.652-10.726l2.832 2.47v-4.208c1.513-.721 3.232-1.248 5.182-1.525l.377-.053-.102-.38c-.159-.593-.595-1.062-1.167-1.428-.574-.367-1.317-.653-2.159-.87-1.613-.415-3.645-.59-5.681-.555l-.624-2.79-1.661 2.919c-1.574.151-3.074.43-4.29.832.592-1.05 1.637-2.113 2.986-3.07 1.653-1.174 3.727-2.164 5.878-2.768 2.154-.604 4.366-.815 6.301-.453 1.93.361 3.57 1.289 4.627 2.957l.606-.232c-.707-5.944 2.506-10.179 6.905-13.084 3.803-2.511 8.449-3.994 12.063-4.682z" fill="#FAD009"/><path d="M347.775 4c-3.816.52-9.452 2.073-13.962 5.051-4.234 2.796-7.526 6.89-7.299 12.594-1.146-1.28-2.674-2.015-4.365-2.332-2.059-.385-4.374-.156-6.591.466-2.22.623-4.362 1.645-6.081 2.865-1.709 1.213-3.038 2.65-3.57 4.124l-.266.737.702-.297c1.273-.539 3.084-.913 5.041-1.089l.17-.015.087-.152.905-1.59.371 1.66.27-.007c2.089-.056 4.167.115 5.776.53.805.207 1.477.471 1.97.787.326.209.56.43.71.66-1.915.313-3.617.865-5.126 1.608l-.189.094v3.169l-2.139-1.867-.209.157c-3.789 2.826-5.961 7.029-7.111 11.257-1.15 4.227-1.286 8.508-.981 11.538l.114 1.134.509-1.01c1.509-2.992 4.261-7.483 7.603-11.22 3.172-3.55 6.809-6.344 10.374-6.642-1.657 2.846-2.592 7.078-2.317 11.421.294 4.648 1.977 9.476 5.704 12.907l.647.596-.098-.892c-.214-1.96-.043-4.314.362-6.788l.038-.234-1.23-.752 1.449-.448.04-.201c.468-2.353 1.109-4.74 1.789-6.923l.079-.254-2.564-1.695 3.264-.424.069-.198c.766-2.195 1.507-4.004 2.036-5.106 6.418 10.738 10.352 23.922 12.659 36.106 2.344 12.375 3.005 23.694 2.895 30.325l-.006.35h8.504l-.049-.389c-.281-2.258.09-5.057.891-8.152.799-3.09 2.02-6.445 3.415-9.804 2.736-6.587 6.12-13.141 8.29-17.71.42.217.915.688 1.452 1.52.644.999 1.321 2.474 1.985 4.523l.06.188.186.04 1.651.357-1.41 1.06.06.23c.889 3.397 1.287 7.098.508 9.793l-.357 1.237.903-.888c1.63-1.604 3.563-5.024 4.445-8.84.813-3.518.748-7.446-1.347-10.623 1.467.428 3.048 1.084 4.698 2.383 2.003 1.575 4.129 4.113 6.266 8.383l.44.878.18-.972c.218-1.177.315-2.29.307-3.338l-.002-.235-1.14-.454.942-1.654-.023-.127a13.253 13.253 0 00-2.449-5.656l-.099-.133h-2.217l.55-1.833-.164-.148a16.926 16.926 0 00-6.024-3.486c1.97-1.237 6.291-2.739 11.546-.92l.339-.57c-1.82-1.89-4.73-4.402-8.218-5.086l-.393-.077v1.45l-1.428-1.553-.145.003c-1.888.033-3.884.665-5.915 2.193.078-2.412-.549-4.372-1.596-5.943l-.077-.115-2.272-.466 1.09-.956-.285-.264c-2.776-2.57-6.758-3.576-9.315-3.744l-.906-.06.656.652c1.259 1.251 3.116 3.342 4.589 5.542.737 1.1 1.371 2.218 1.788 3.265.304.764.485 1.471.515 2.096-.815-.65-1.906-1.18-3.158-1.558-1.553-.468-3.38-.708-5.298-.643-3.832.132-8.063 1.487-11.203 4.748l-.66.685.928-.099c3.765-.4 6.752-.324 9.069-.001l.238.033.771-1.653.929 1.977.153.037c2.081.507 3.365 1.212 4.035 1.787-2.044.399-4.861 1.396-7.302 3.234l-.137.103v1.788l-.77-.738-.225-.215-.225.216c-1.93 1.858-3.426 4.373-3.751 7.685l-.078.806.613-.5c4.299-3.505 10.122-5.074 13.069-5.519-2.475 4.21-7.547 14.123-11.196 25.54-3.062-17.05-6.544-30.017-9.675-39.335-2.951-8.782-5.596-14.339-7.293-17.014 1.883.25 4.373.686 7.025 1.327l.119.028.108-.057 2.627-1.402-.706 2.492.326.093c4.613 1.313 8.719 3.248 11.498 5.285l.523.383v-.664c0-1.077-.53-2.763-1.484-4.626a25.779 25.779 0 00-4.206-5.9c-3.442-3.617-8.367-6.6-14.449-6.12 2.251-1.716 6.152-3.492 10.562-4.6 5.026-1.262 10.633-1.636 15.108-.115l.323-.584c-2.45-2.256-5.495-4.322-8.887-5.64l-.35-.136-.405 1.737-1.475-2.341-.124-.033c-2.885-.776-5.966-.97-9.102-.274l-.262.058v2.65l-2.077-2.023-.191.073c-2.672 1.012-5.345 2.718-7.937 5.292.226-2.05.89-4.007 1.827-5.828l.124-.241-1.804-1.643h2.771l.099-.15c2.921-4.455 7.225-7.827 9.837-9.361L347.775 4zm-1.543.95c-2.605 1.784-6.037 4.761-8.536 8.514h-4.184l2.736 2.49c-1.043 2.092-1.746 4.374-1.855 6.788l-.04.898.608-.64c2.667-2.811 5.413-4.64 8.14-5.708l2.894 2.819v-3.68c2.888-.594 5.729-.413 8.412.29l2.171 3.45.589-2.526c2.654 1.08 5.089 2.628 7.171 4.357-4.346-1.055-9.433-.614-13.988.53-5.077 1.274-9.574 3.444-11.706 5.48l-.784.75 1.054-.155c6.328-.927 11.45 2.059 15.008 5.796a25.079 25.079 0 014.091 5.74c.731 1.425 1.174 2.686 1.336 3.601-2.757-1.886-6.562-3.638-10.787-4.872l.952-3.361-3.894 2.078c-2.991-.717-5.769-1.177-7.709-1.403l-.749-.087.444.632c1.6 2.282 4.422 7.941 7.624 17.471 3.2 9.521 6.773 22.886 9.886 40.565l.642.043c3.835-12.498 9.534-23.407 11.897-27.288l.365-.6-.679.073c-2.585.278-8.725 1.708-13.452 5.252.43-2.603 1.649-4.645 3.214-6.225l1.654 1.586V64.6c2.572-1.891 5.56-2.833 7.504-3.118l.556-.08-.337-.467c-.568-.786-2.061-1.782-4.676-2.444l-1.391-2.956-1.156 2.48c-2.132-.276-4.78-.349-8.016-.063 2.906-2.622 6.628-3.75 10.054-3.868 1.853-.063 3.61.17 5.092.616 1.486.448 2.672 1.103 3.406 1.865l.459.477.102-.665c.147-.952-.088-2.037-.527-3.14-.442-1.108-1.104-2.27-1.857-3.394-1.26-1.882-2.79-3.68-4.008-4.962 2.332.306 5.415 1.251 7.708 3.22l-1.555 1.363 3.36.689c1.017 1.58 1.59 3.589 1.36 6.137l-.074.811.612-.51c2.074-1.734 4.083-2.436 5.952-2.501l2.368 2.575v-2.328c2.573.62 4.822 2.276 6.5 3.844-5.469-1.397-9.811.547-11.418 1.827l-.545.434.666.173c1.766.458 4.184 1.548 6.286 3.395l-.689 2.295h2.79a12.537 12.537 0 012.201 5.101l-1.214 2.132 1.448.577c-.005.632-.05 1.29-.138 1.975-2.018-3.805-4.04-6.18-5.99-7.714-2.103-1.654-4.1-2.314-5.862-2.75l-.974-.24.643.796c2.474 3.067 2.653 7.112 1.796 10.822-.707 3.06-2.108 5.835-3.429 7.553.404-2.614.006-5.765-.726-8.645l2.255-1.695-2.935-.635c-.655-1.988-1.333-3.465-2-4.5-.682-1.057-1.382-1.698-2.074-1.903l-.267-.079-.122.259c-2.146 4.544-5.638 11.279-8.439 18.023-1.401 3.375-2.636 6.764-3.447 9.898-.766 2.961-1.161 5.719-.949 8.032h-7.083c.082-6.723-.599-17.912-2.911-30.12-2.352-12.42-6.396-25.92-13.056-36.848l-.298-.49-.272.507c-.539 1.008-1.39 3.02-2.274 5.531l-4.688.61 3.686 2.436a69.411 69.411 0 00-1.689 6.54l-2.53.78 2.15 1.315c-.326 2.064-.493 4.068-.4 5.845-3.135-3.233-4.594-7.586-4.863-11.832-.286-4.524.781-8.875 2.553-11.551l.357-.54h-.63c-4.061 0-8.11 3.114-11.484 6.888-3.027 3.386-5.57 7.372-7.169 10.346-.161-2.841.062-6.51 1.048-10.133 1.102-4.052 3.15-8.02 6.652-10.726l2.832 2.47v-4.208c1.513-.721 3.232-1.248 5.182-1.525l.377-.053-.102-.38c-.159-.593-.595-1.062-1.167-1.428-.574-.367-1.317-.653-2.159-.87-1.613-.415-3.645-.59-5.681-.555l-.624-2.79-1.661 2.919c-1.574.151-3.074.43-4.29.832.592-1.05 1.637-2.113 2.986-3.07 1.653-1.174 3.727-2.164 5.878-2.768 2.154-.604 4.366-.815 6.301-.453 1.93.361 3.57 1.289 4.627 2.957l.606-.232c-.707-5.944 2.506-10.179 6.905-13.084 3.803-2.511 8.449-3.994 12.063-4.682z" fill="#ED2EA5"/><defs><filter id="a" x="0" y="41.5" width="402.783" height="85.698" filterUnits="userSpaceOnUse" color-interpolation-filters="sRGB"><feFlood flood-opacity="0" result="BackgroundImageFix"/><feColorMatrix in="SourceAlpha" values="0 0 0 0 0 0 0 0 0 0 0 0 0 0 0 0 0 0 127 0" result="hardAlpha"/><feOffset/><feGaussianBlur stdDeviation="2.5"/><feColorMatrix values="0 0 0 0 0.929412 0 0 0 0 0.180392 0 0 0 0 0.647059 0 0 0 1 0"/><feBlend in2="BackgroundImageFix" result="effect1_dropShadow_670_1833"/><feBlend in="SourceGraphic" in2="effect1_dropShadow_670_1833" result="shape"/></filter></defs></svg>