<svg width="26" height="26" fill="none" xmlns="http://www.w3.org/2000/svg"><path d="M13.006 0c.509-.016.963.335 1.105.852.417 1.524 1.166 3.803 2.045 5.678.443.942.892 1.727 1.317 2.258.47.588.705.61.69.61.23 0 .62-.112 1.174-.439.532-.314 1.117-.767 1.711-1.3 1.189-1.065 2.312-2.356 2.975-3.213a1.074 1.074 0 011.327-.324c.46.224.72.748.633 1.276L22.75 25.022c-.093.566-.556.978-1.098.978H4.572c-.538 0-.998-.405-1.097-.964L.02 5.412c-.096-.543.177-1.084.656-1.302a1.078 1.078 0 011.343.393 19.284 19.284 0 002.747 3.161C5.975 8.764 7.1 9.4 7.916 9.4c.164 0 .478-.108.935-.641.442-.516.887-1.282 1.308-2.213.838-1.853 1.471-4.112 1.793-5.624l.006-.025c.12-.512.548-.88 1.048-.895zm.12 5.092c-.278.835-.598 1.682-.956 2.473-.465 1.027-1.02 2.023-1.668 2.78-.634.74-1.502 1.415-2.586 1.415-1.681 0-3.345-1.16-4.603-2.303a17.246 17.246 0 01-.375-.352l2.56 14.534h15.216L23.154 8.84c-.218.211-.44.42-.664.62-.657.59-1.364 1.146-2.066 1.56-.682.403-1.469.74-2.26.74-1.034 0-1.843-.762-2.391-1.446-.593-.742-1.136-1.72-1.613-2.735a32.837 32.837 0 01-1.032-2.488z" fill="#FAD009"/></svg>